<svg xmlns="http://www.w3.org/2000/svg" xmlns:xlink="http://www.w3.org/1999/xlink" width="600" height="400" viewBox="0 0 2400 1600">
<defs>
  <clipPath id="clip060">
    <rect x="0" y="0" width="2400" height="1600"></rect>
  </clipPath>
</defs>
<path clip-path="url(#clip060)" d="M0 1600 L2400 1600 L2400 0 L0 0  Z" fill="#ffffff" fill-rule="evenodd" fill-opacity="1"></path>
<defs>
  <clipPath id="clip061">
    <rect x="480" y="0" width="1681" height="1600"></rect>
  </clipPath>
</defs>
<path clip-path="url(#clip060)" d="M149.191 1486.45 L2352.76 1486.45 L2352.76 47.2441 L149.191 47.2441  Z" fill="#ffffff" fill-rule="evenodd" fill-opacity="1"></path>
<defs>
  <clipPath id="clip062">
    <rect x="149" y="47" width="2205" height="1440"></rect>
  </clipPath>
</defs>
<polyline clip-path="url(#clip062)" style="stroke:#000000; stroke-linecap:round; stroke-linejoin:round; stroke-width:2; stroke-opacity:0.1; fill:none" points="209.473,1486.45 209.473,47.2441 "></polyline>
<polyline clip-path="url(#clip062)" style="stroke:#000000; stroke-linecap:round; stroke-linejoin:round; stroke-width:2; stroke-opacity:0.1; fill:none" points="730.223,1486.45 730.223,47.2441 "></polyline>
<polyline clip-path="url(#clip062)" style="stroke:#000000; stroke-linecap:round; stroke-linejoin:round; stroke-width:2; stroke-opacity:0.1; fill:none" points="1250.97,1486.45 1250.97,47.2441 "></polyline>
<polyline clip-path="url(#clip062)" style="stroke:#000000; stroke-linecap:round; stroke-linejoin:round; stroke-width:2; stroke-opacity:0.1; fill:none" points="1771.72,1486.45 1771.72,47.2441 "></polyline>
<polyline clip-path="url(#clip062)" style="stroke:#000000; stroke-linecap:round; stroke-linejoin:round; stroke-width:2; stroke-opacity:0.1; fill:none" points="2292.47,1486.45 2292.47,47.2441 "></polyline>
<polyline clip-path="url(#clip060)" style="stroke:#000000; stroke-linecap:round; stroke-linejoin:round; stroke-width:4; stroke-opacity:1; fill:none" points="149.191,1486.45 2352.76,1486.45 "></polyline>
<polyline clip-path="url(#clip060)" style="stroke:#000000; stroke-linecap:round; stroke-linejoin:round; stroke-width:4; stroke-opacity:1; fill:none" points="209.473,1486.45 209.473,1467.55 "></polyline>
<polyline clip-path="url(#clip060)" style="stroke:#000000; stroke-linecap:round; stroke-linejoin:round; stroke-width:4; stroke-opacity:1; fill:none" points="730.223,1486.45 730.223,1467.55 "></polyline>
<polyline clip-path="url(#clip060)" style="stroke:#000000; stroke-linecap:round; stroke-linejoin:round; stroke-width:4; stroke-opacity:1; fill:none" points="1250.97,1486.45 1250.97,1467.55 "></polyline>
<polyline clip-path="url(#clip060)" style="stroke:#000000; stroke-linecap:round; stroke-linejoin:round; stroke-width:4; stroke-opacity:1; fill:none" points="1771.72,1486.45 1771.72,1467.55 "></polyline>
<polyline clip-path="url(#clip060)" style="stroke:#000000; stroke-linecap:round; stroke-linejoin:round; stroke-width:4; stroke-opacity:1; fill:none" points="2292.47,1486.45 2292.47,1467.55 "></polyline>
<path clip-path="url(#clip060)" d="M209.473 1517.37 Q205.862 1517.37 204.033 1520.93 Q202.228 1524.47 202.228 1531.6 Q202.228 1538.71 204.033 1542.27 Q205.862 1545.82 209.473 1545.82 Q213.107 1545.82 214.913 1542.27 Q216.741 1538.71 216.741 1531.6 Q216.741 1524.47 214.913 1520.93 Q213.107 1517.37 209.473 1517.37 M209.473 1513.66 Q215.283 1513.66 218.339 1518.27 Q221.417 1522.85 221.417 1531.6 Q221.417 1540.33 218.339 1544.94 Q215.283 1549.52 209.473 1549.52 Q203.663 1549.52 200.584 1544.94 Q197.529 1540.33 197.529 1531.6 Q197.529 1522.85 200.584 1518.27 Q203.663 1513.66 209.473 1513.66 Z" fill="#000000" fill-rule="nonzero" fill-opacity="1"></path><path clip-path="url(#clip060)" d="M693.915 1544.91 L710.235 1544.91 L710.235 1548.85 L688.291 1548.85 L688.291 1544.91 Q690.953 1542.16 695.536 1537.53 Q700.142 1532.88 701.323 1531.53 Q703.568 1529.01 704.448 1527.27 Q705.351 1525.51 705.351 1523.82 Q705.351 1521.07 703.406 1519.33 Q701.485 1517.6 698.383 1517.6 Q696.184 1517.6 693.73 1518.36 Q691.3 1519.13 688.522 1520.68 L688.522 1515.95 Q691.346 1514.82 693.8 1514.24 Q696.253 1513.66 698.29 1513.66 Q703.661 1513.66 706.855 1516.35 Q710.05 1519.03 710.05 1523.52 Q710.05 1525.65 709.239 1527.57 Q708.452 1529.47 706.346 1532.07 Q705.767 1532.74 702.665 1535.95 Q699.564 1539.15 693.915 1544.91 Z" fill="#000000" fill-rule="nonzero" fill-opacity="1"></path><path clip-path="url(#clip060)" d="M720.096 1514.29 L738.452 1514.29 L738.452 1518.22 L724.378 1518.22 L724.378 1526.7 Q725.397 1526.35 726.415 1526.19 Q727.434 1526 728.452 1526 Q734.239 1526 737.619 1529.17 Q740.999 1532.34 740.999 1537.76 Q740.999 1543.34 737.526 1546.44 Q734.054 1549.52 727.735 1549.52 Q725.559 1549.52 723.29 1549.15 Q721.045 1548.78 718.638 1548.04 L718.638 1543.34 Q720.721 1544.47 722.943 1545.03 Q725.165 1545.58 727.642 1545.58 Q731.647 1545.58 733.985 1543.48 Q736.323 1541.37 736.323 1537.76 Q736.323 1534.15 733.985 1532.04 Q731.647 1529.94 727.642 1529.94 Q725.767 1529.94 723.892 1530.35 Q722.04 1530.77 720.096 1531.65 L720.096 1514.29 Z" fill="#000000" fill-rule="nonzero" fill-opacity="1"></path><path clip-path="url(#clip060)" d="M760.211 1517.37 Q756.6 1517.37 754.772 1520.93 Q752.966 1524.47 752.966 1531.6 Q752.966 1538.71 754.772 1542.27 Q756.6 1545.82 760.211 1545.82 Q763.846 1545.82 765.651 1542.27 Q767.48 1538.71 767.48 1531.6 Q767.48 1524.47 765.651 1520.93 Q763.846 1517.37 760.211 1517.37 M760.211 1513.66 Q766.022 1513.66 769.077 1518.27 Q772.156 1522.85 772.156 1531.6 Q772.156 1540.33 769.077 1544.94 Q766.022 1549.52 760.211 1549.52 Q754.401 1549.52 751.323 1544.94 Q748.267 1540.33 748.267 1531.6 Q748.267 1522.85 751.323 1518.27 Q754.401 1513.66 760.211 1513.66 Z" fill="#000000" fill-rule="nonzero" fill-opacity="1"></path><path clip-path="url(#clip060)" d="M1210.59 1514.29 L1228.95 1514.29 L1228.95 1518.22 L1214.87 1518.22 L1214.87 1526.7 Q1215.89 1526.35 1216.91 1526.19 Q1217.93 1526 1218.95 1526 Q1224.74 1526 1228.11 1529.17 Q1231.49 1532.34 1231.49 1537.76 Q1231.49 1543.34 1228.02 1546.44 Q1224.55 1549.52 1218.23 1549.52 Q1216.05 1549.52 1213.79 1549.15 Q1211.54 1548.78 1209.13 1548.04 L1209.13 1543.34 Q1211.22 1544.47 1213.44 1545.03 Q1215.66 1545.58 1218.14 1545.58 Q1222.14 1545.58 1224.48 1543.48 Q1226.82 1541.37 1226.82 1537.76 Q1226.82 1534.15 1224.48 1532.04 Q1222.14 1529.94 1218.14 1529.94 Q1216.26 1529.94 1214.39 1530.35 Q1212.54 1530.77 1210.59 1531.65 L1210.59 1514.29 Z" fill="#000000" fill-rule="nonzero" fill-opacity="1"></path><path clip-path="url(#clip060)" d="M1250.71 1517.37 Q1247.1 1517.37 1245.27 1520.93 Q1243.46 1524.47 1243.46 1531.6 Q1243.46 1538.71 1245.27 1542.27 Q1247.1 1545.82 1250.71 1545.82 Q1254.34 1545.82 1256.15 1542.27 Q1257.98 1538.71 1257.98 1531.6 Q1257.98 1524.47 1256.15 1520.93 Q1254.34 1517.37 1250.71 1517.37 M1250.71 1513.66 Q1256.52 1513.66 1259.57 1518.27 Q1262.65 1522.85 1262.65 1531.6 Q1262.65 1540.33 1259.57 1544.94 Q1256.52 1549.52 1250.71 1549.52 Q1244.9 1549.52 1241.82 1544.94 Q1238.76 1540.33 1238.76 1531.6 Q1238.76 1522.85 1241.82 1518.27 Q1244.9 1513.66 1250.71 1513.66 Z" fill="#000000" fill-rule="nonzero" fill-opacity="1"></path><path clip-path="url(#clip060)" d="M1280.87 1517.37 Q1277.26 1517.37 1275.43 1520.93 Q1273.62 1524.47 1273.62 1531.6 Q1273.62 1538.71 1275.43 1542.27 Q1277.26 1545.82 1280.87 1545.82 Q1284.5 1545.82 1286.31 1542.27 Q1288.14 1538.71 1288.14 1531.6 Q1288.14 1524.47 1286.31 1520.93 Q1284.5 1517.37 1280.87 1517.37 M1280.87 1513.66 Q1286.68 1513.66 1289.73 1518.27 Q1292.81 1522.85 1292.81 1531.6 Q1292.81 1540.33 1289.73 1544.94 Q1286.68 1549.52 1280.87 1549.52 Q1275.06 1549.52 1271.98 1544.94 Q1268.92 1540.33 1268.92 1531.6 Q1268.92 1522.85 1271.98 1518.27 Q1275.06 1513.66 1280.87 1513.66 Z" fill="#000000" fill-rule="nonzero" fill-opacity="1"></path><path clip-path="url(#clip060)" d="M1730 1514.29 L1752.22 1514.29 L1752.22 1516.28 L1739.68 1548.85 L1734.79 1548.85 L1746.6 1518.22 L1730 1518.22 L1730 1514.29 Z" fill="#000000" fill-rule="nonzero" fill-opacity="1"></path><path clip-path="url(#clip060)" d="M1761.39 1514.29 L1779.74 1514.29 L1779.74 1518.22 L1765.67 1518.22 L1765.67 1526.7 Q1766.69 1526.35 1767.71 1526.19 Q1768.73 1526 1769.74 1526 Q1775.53 1526 1778.91 1529.17 Q1782.29 1532.34 1782.29 1537.76 Q1782.29 1543.34 1778.82 1546.44 Q1775.35 1549.52 1769.03 1549.52 Q1766.85 1549.52 1764.58 1549.15 Q1762.34 1548.78 1759.93 1548.04 L1759.93 1543.34 Q1762.01 1544.47 1764.24 1545.03 Q1766.46 1545.58 1768.93 1545.58 Q1772.94 1545.58 1775.28 1543.48 Q1777.61 1541.37 1777.61 1537.76 Q1777.61 1534.15 1775.28 1532.04 Q1772.94 1529.94 1768.93 1529.94 Q1767.06 1529.94 1765.18 1530.35 Q1763.33 1530.77 1761.39 1531.65 L1761.39 1514.29 Z" fill="#000000" fill-rule="nonzero" fill-opacity="1"></path><path clip-path="url(#clip060)" d="M1801.5 1517.37 Q1797.89 1517.37 1796.06 1520.93 Q1794.26 1524.47 1794.26 1531.6 Q1794.26 1538.71 1796.06 1542.27 Q1797.89 1545.82 1801.5 1545.82 Q1805.14 1545.82 1806.94 1542.27 Q1808.77 1538.71 1808.77 1531.6 Q1808.77 1524.47 1806.94 1520.93 Q1805.14 1517.37 1801.5 1517.37 M1801.5 1513.66 Q1807.31 1513.66 1810.37 1518.27 Q1813.45 1522.85 1813.45 1531.6 Q1813.45 1540.33 1810.37 1544.94 Q1807.31 1549.52 1801.5 1549.52 Q1795.69 1549.52 1792.61 1544.94 Q1789.56 1540.33 1789.56 1531.6 Q1789.56 1522.85 1792.61 1518.27 Q1795.69 1513.66 1801.5 1513.66 Z" fill="#000000" fill-rule="nonzero" fill-opacity="1"></path><path clip-path="url(#clip060)" d="M2237 1544.91 L2244.64 1544.91 L2244.64 1518.55 L2236.33 1520.21 L2236.33 1515.95 L2244.59 1514.29 L2249.27 1514.29 L2249.27 1544.91 L2256.91 1544.91 L2256.91 1548.85 L2237 1548.85 L2237 1544.91 Z" fill="#000000" fill-rule="nonzero" fill-opacity="1"></path><path clip-path="url(#clip060)" d="M2276.35 1517.37 Q2272.74 1517.37 2270.91 1520.93 Q2269.11 1524.47 2269.11 1531.6 Q2269.11 1538.71 2270.91 1542.27 Q2272.74 1545.82 2276.35 1545.82 Q2279.99 1545.82 2281.79 1542.27 Q2283.62 1538.71 2283.62 1531.6 Q2283.62 1524.47 2281.79 1520.93 Q2279.99 1517.37 2276.35 1517.37 M2276.35 1513.66 Q2282.16 1513.66 2285.22 1518.27 Q2288.3 1522.85 2288.3 1531.6 Q2288.3 1540.33 2285.22 1544.94 Q2282.16 1549.52 2276.35 1549.52 Q2270.54 1549.52 2267.46 1544.94 Q2264.41 1540.33 2264.41 1531.6 Q2264.41 1522.85 2267.46 1518.27 Q2270.54 1513.66 2276.35 1513.66 Z" fill="#000000" fill-rule="nonzero" fill-opacity="1"></path><path clip-path="url(#clip060)" d="M2306.51 1517.37 Q2302.9 1517.37 2301.07 1520.93 Q2299.27 1524.47 2299.27 1531.6 Q2299.27 1538.71 2301.07 1542.27 Q2302.9 1545.82 2306.51 1545.82 Q2310.15 1545.82 2311.95 1542.27 Q2313.78 1538.71 2313.78 1531.6 Q2313.78 1524.47 2311.95 1520.93 Q2310.15 1517.37 2306.51 1517.37 M2306.51 1513.66 Q2312.32 1513.66 2315.38 1518.27 Q2318.46 1522.85 2318.46 1531.6 Q2318.46 1540.33 2315.38 1544.94 Q2312.32 1549.52 2306.51 1549.52 Q2300.7 1549.52 2297.62 1544.94 Q2294.57 1540.33 2294.57 1531.6 Q2294.57 1522.85 2297.62 1518.27 Q2300.7 1513.66 2306.51 1513.66 Z" fill="#000000" fill-rule="nonzero" fill-opacity="1"></path><path clip-path="url(#clip060)" d="M2336.68 1517.37 Q2333.06 1517.37 2331.24 1520.93 Q2329.43 1524.47 2329.43 1531.6 Q2329.43 1538.71 2331.24 1542.27 Q2333.06 1545.82 2336.68 1545.82 Q2340.31 1545.82 2342.11 1542.27 Q2343.94 1538.71 2343.94 1531.6 Q2343.94 1524.47 2342.11 1520.93 Q2340.31 1517.37 2336.68 1517.37 M2336.68 1513.66 Q2342.49 1513.66 2345.54 1518.27 Q2348.62 1522.85 2348.62 1531.6 Q2348.62 1540.33 2345.54 1544.94 Q2342.49 1549.52 2336.68 1549.52 Q2330.86 1549.52 2327.79 1544.94 Q2324.73 1540.33 2324.73 1531.6 Q2324.73 1522.85 2327.79 1518.27 Q2330.86 1513.66 2336.68 1513.66 Z" fill="#000000" fill-rule="nonzero" fill-opacity="1"></path><polyline clip-path="url(#clip062)" style="stroke:#000000; stroke-linecap:round; stroke-linejoin:round; stroke-width:2; stroke-opacity:0.1; fill:none" points="149.191,1311.18 2352.76,1311.18 "></polyline>
<polyline clip-path="url(#clip062)" style="stroke:#000000; stroke-linecap:round; stroke-linejoin:round; stroke-width:2; stroke-opacity:0.1; fill:none" points="149.191,1117.81 2352.76,1117.81 "></polyline>
<polyline clip-path="url(#clip062)" style="stroke:#000000; stroke-linecap:round; stroke-linejoin:round; stroke-width:2; stroke-opacity:0.1; fill:none" points="149.191,924.442 2352.76,924.442 "></polyline>
<polyline clip-path="url(#clip062)" style="stroke:#000000; stroke-linecap:round; stroke-linejoin:round; stroke-width:2; stroke-opacity:0.1; fill:none" points="149.191,731.075 2352.76,731.075 "></polyline>
<polyline clip-path="url(#clip062)" style="stroke:#000000; stroke-linecap:round; stroke-linejoin:round; stroke-width:2; stroke-opacity:0.1; fill:none" points="149.191,537.707 2352.76,537.707 "></polyline>
<polyline clip-path="url(#clip062)" style="stroke:#000000; stroke-linecap:round; stroke-linejoin:round; stroke-width:2; stroke-opacity:0.1; fill:none" points="149.191,344.34 2352.76,344.34 "></polyline>
<polyline clip-path="url(#clip062)" style="stroke:#000000; stroke-linecap:round; stroke-linejoin:round; stroke-width:2; stroke-opacity:0.1; fill:none" points="149.191,150.973 2352.76,150.973 "></polyline>
<polyline clip-path="url(#clip060)" style="stroke:#000000; stroke-linecap:round; stroke-linejoin:round; stroke-width:4; stroke-opacity:1; fill:none" points="149.191,1486.45 149.191,47.2441 "></polyline>
<polyline clip-path="url(#clip060)" style="stroke:#000000; stroke-linecap:round; stroke-linejoin:round; stroke-width:4; stroke-opacity:1; fill:none" points="149.191,1311.18 168.089,1311.18 "></polyline>
<polyline clip-path="url(#clip060)" style="stroke:#000000; stroke-linecap:round; stroke-linejoin:round; stroke-width:4; stroke-opacity:1; fill:none" points="149.191,1117.81 168.089,1117.81 "></polyline>
<polyline clip-path="url(#clip060)" style="stroke:#000000; stroke-linecap:round; stroke-linejoin:round; stroke-width:4; stroke-opacity:1; fill:none" points="149.191,924.442 168.089,924.442 "></polyline>
<polyline clip-path="url(#clip060)" style="stroke:#000000; stroke-linecap:round; stroke-linejoin:round; stroke-width:4; stroke-opacity:1; fill:none" points="149.191,731.075 168.089,731.075 "></polyline>
<polyline clip-path="url(#clip060)" style="stroke:#000000; stroke-linecap:round; stroke-linejoin:round; stroke-width:4; stroke-opacity:1; fill:none" points="149.191,537.707 168.089,537.707 "></polyline>
<polyline clip-path="url(#clip060)" style="stroke:#000000; stroke-linecap:round; stroke-linejoin:round; stroke-width:4; stroke-opacity:1; fill:none" points="149.191,344.34 168.089,344.34 "></polyline>
<polyline clip-path="url(#clip060)" style="stroke:#000000; stroke-linecap:round; stroke-linejoin:round; stroke-width:4; stroke-opacity:1; fill:none" points="149.191,150.973 168.089,150.973 "></polyline>
<path clip-path="url(#clip060)" d="M51.3162 1311.63 L80.992 1311.63 L80.992 1315.56 L51.3162 1315.56 L51.3162 1311.63 Z" fill="#000000" fill-rule="nonzero" fill-opacity="1"></path><path clip-path="url(#clip060)" d="M101.663 1309.31 Q98.515 1309.31 96.6632 1311.47 Q94.8345 1313.62 94.8345 1317.37 Q94.8345 1321.09 96.6632 1323.27 Q98.515 1325.42 101.663 1325.42 Q104.811 1325.42 106.64 1323.27 Q108.492 1321.09 108.492 1317.37 Q108.492 1313.62 106.64 1311.47 Q104.811 1309.31 101.663 1309.31 M110.946 1294.66 L110.946 1298.92 Q109.186 1298.09 107.381 1297.65 Q105.598 1297.21 103.839 1297.21 Q99.2095 1297.21 96.7558 1300.33 Q94.3252 1303.46 93.978 1309.78 Q95.3437 1307.76 97.4039 1306.7 Q99.4641 1305.61 101.941 1305.61 Q107.149 1305.61 110.158 1308.78 Q113.191 1311.93 113.191 1317.37 Q113.191 1322.69 110.043 1325.91 Q106.895 1329.13 101.663 1329.13 Q95.6678 1329.13 92.4965 1324.54 Q89.3253 1319.94 89.3253 1311.21 Q89.3253 1303.02 93.2141 1298.16 Q97.103 1293.27 103.654 1293.27 Q105.413 1293.27 107.196 1293.62 Q109.001 1293.97 110.946 1294.66 Z" fill="#000000" fill-rule="nonzero" fill-opacity="1"></path><path clip-path="url(#clip060)" d="M50.9921 1118.26 L80.6679 1118.26 L80.6679 1122.2 L50.9921 1122.2 L50.9921 1118.26 Z" fill="#000000" fill-rule="nonzero" fill-opacity="1"></path><path clip-path="url(#clip060)" d="M103.608 1104.6 L91.8021 1123.05 L103.608 1123.05 L103.608 1104.6 M102.381 1100.53 L108.26 1100.53 L108.26 1123.05 L113.191 1123.05 L113.191 1126.94 L108.26 1126.94 L108.26 1135.09 L103.608 1135.09 L103.608 1126.94 L88.0058 1126.94 L88.0058 1122.43 L102.381 1100.53 Z" fill="#000000" fill-rule="nonzero" fill-opacity="1"></path><path clip-path="url(#clip060)" d="M53.0754 924.893 L82.7512 924.893 L82.7512 928.828 L53.0754 928.828 L53.0754 924.893 Z" fill="#000000" fill-rule="nonzero" fill-opacity="1"></path><path clip-path="url(#clip060)" d="M96.8715 937.787 L113.191 937.787 L113.191 941.722 L91.2465 941.722 L91.2465 937.787 Q93.9086 935.032 98.4919 930.402 Q103.098 925.75 104.279 924.407 Q106.524 921.884 107.404 920.148 Q108.307 918.388 108.307 916.699 Q108.307 913.944 106.362 912.208 Q104.441 910.472 101.339 910.472 Q99.14 910.472 96.6863 911.236 Q94.2558 912 91.478 913.551 L91.478 908.828 Q94.3021 907.694 96.7558 907.115 Q99.2095 906.537 101.246 906.537 Q106.617 906.537 109.811 909.222 Q113.006 911.907 113.006 916.398 Q113.006 918.527 112.196 920.449 Q111.408 922.347 109.302 924.939 Q108.723 925.611 105.621 928.828 Q102.52 932.023 96.8715 937.787 Z" fill="#000000" fill-rule="nonzero" fill-opacity="1"></path><path clip-path="url(#clip060)" d="M101.246 716.873 Q97.6354 716.873 95.8067 720.438 Q94.0012 723.98 94.0012 731.109 Q94.0012 738.216 95.8067 741.781 Q97.6354 745.322 101.246 745.322 Q104.881 745.322 106.686 741.781 Q108.515 738.216 108.515 731.109 Q108.515 723.98 106.686 720.438 Q104.881 716.873 101.246 716.873 M101.246 713.17 Q107.057 713.17 110.112 717.776 Q113.191 722.359 113.191 731.109 Q113.191 739.836 110.112 744.443 Q107.057 749.026 101.246 749.026 Q95.4363 749.026 92.3576 744.443 Q89.3021 739.836 89.3021 731.109 Q89.3021 722.359 92.3576 717.776 Q95.4363 713.17 101.246 713.17 Z" fill="#000000" fill-rule="nonzero" fill-opacity="1"></path><path clip-path="url(#clip060)" d="M96.8715 551.052 L113.191 551.052 L113.191 554.987 L91.2465 554.987 L91.2465 551.052 Q93.9086 548.298 98.4919 543.668 Q103.098 539.015 104.279 537.673 Q106.524 535.15 107.404 533.414 Q108.307 531.654 108.307 529.964 Q108.307 527.21 106.362 525.474 Q104.441 523.738 101.339 523.738 Q99.14 523.738 96.6863 524.502 Q94.2558 525.265 91.478 526.816 L91.478 522.094 Q94.3021 520.96 96.7558 520.381 Q99.2095 519.803 101.246 519.803 Q106.617 519.803 109.811 522.488 Q113.006 525.173 113.006 529.664 Q113.006 531.793 112.196 533.714 Q111.408 535.613 109.302 538.205 Q108.723 538.876 105.621 542.094 Q102.52 545.288 96.8715 551.052 Z" fill="#000000" fill-rule="nonzero" fill-opacity="1"></path><path clip-path="url(#clip060)" d="M103.608 331.134 L91.8021 349.583 L103.608 349.583 L103.608 331.134 M102.381 327.06 L108.26 327.06 L108.26 349.583 L113.191 349.583 L113.191 353.472 L108.26 353.472 L108.26 361.62 L103.608 361.62 L103.608 353.472 L88.0058 353.472 L88.0058 348.958 L102.381 327.06 Z" fill="#000000" fill-rule="nonzero" fill-opacity="1"></path><path clip-path="url(#clip060)" d="M101.663 149.11 Q98.515 149.11 96.6632 151.263 Q94.8345 153.415 94.8345 157.165 Q94.8345 160.892 96.6632 163.068 Q98.515 165.221 101.663 165.221 Q104.811 165.221 106.64 163.068 Q108.492 160.892 108.492 157.165 Q108.492 153.415 106.64 151.263 Q104.811 149.11 101.663 149.11 M110.946 134.457 L110.946 138.716 Q109.186 137.883 107.381 137.443 Q105.598 137.003 103.839 137.003 Q99.2095 137.003 96.7558 140.128 Q94.3252 143.253 93.978 149.573 Q95.3437 147.559 97.4039 146.494 Q99.4641 145.406 101.941 145.406 Q107.149 145.406 110.158 148.577 Q113.191 151.726 113.191 157.165 Q113.191 162.489 110.043 165.707 Q106.895 168.925 101.663 168.925 Q95.6678 168.925 92.4965 164.341 Q89.3253 159.735 89.3253 151.008 Q89.3253 142.814 93.2141 137.953 Q97.103 133.068 103.654 133.068 Q105.413 133.068 107.196 133.416 Q109.001 133.763 110.946 134.457 Z" fill="#000000" fill-rule="nonzero" fill-opacity="1"></path><polyline clip-path="url(#clip062)" style="stroke:#009af9; stroke-linecap:round; stroke-linejoin:round; stroke-width:4; stroke-opacity:1; fill:none" points="211.556,728.027 213.639,720.543 215.722,671.967 217.805,626.387 219.888,621.69 221.971,644.455 224.054,614.258 226.137,618.162 228.22,592.454 230.303,610.082 232.386,613.765 234.469,647.452 236.552,616.039 238.635,714.216 240.718,783.551 242.801,733.653 244.884,885.488 246.967,907.677 249.05,1000.23 251.133,963.32 253.216,901.359 255.299,1015.73 257.382,1070.42 259.465,1075.28 261.548,1049.95 263.631,949.724 265.714,946.458 267.797,954.343 269.88,940.853 271.963,912.142 274.046,910.177 276.129,943.328 278.212,956.324 280.295,1114.03 282.378,1191.89 284.461,1190.55 286.544,1117.12 288.627,1134.15 290.71,1013.12 292.793,1021.96 294.876,1021.74 296.959,1071.82 299.042,1094.83 301.125,1077.52 303.208,1088.22 305.291,1022.1 307.374,992.829 309.457,1010.15 311.54,1069.37 313.623,1027.06 315.706,962.118 317.789,856.819 319.872,886.756 321.955,824.904 324.038,659.226 326.121,606.998 328.204,532.454 330.287,474.794 332.37,495.545 334.453,572.078 336.536,525.873 338.619,554.303 340.702,545.742 342.785,562.976 344.868,547.415 346.951,568.683 349.034,631.221 351.117,598.301 353.2,581.525 355.283,741.537 357.366,798.941 359.449,679.372 361.532,605.387 363.615,587.991 365.698,544.345 367.781,650.725 369.864,605.187 371.947,633.52 374.03,620.531 376.113,580.674 378.196,689.866 380.279,794.653 382.362,931.738 384.445,870.389 386.528,832.637 388.611,805.229 390.694,781.891 392.777,822.42 394.86,717.556 396.943,735.421 399.026,727.008 401.109,696.433 403.192,574.691 405.275,529.9 407.358,572.776 409.441,600.879 411.524,529.068 413.607,536.468 415.69,492.826 417.773,542.442 419.856,559.62 421.939,510.131 424.022,527.869 426.105,597.523 428.188,691.739 430.271,769.966 432.354,874.335 434.437,984.278 436.52,1006 438.603,1000.63 440.686,854.246 442.769,833.232 444.852,930.9 446.935,990.161 449.018,991.846 451.101,859.374 453.184,861.842 455.267,844.109 457.35,859.596 459.433,845.871 461.516,907.786 463.599,848.877 465.682,818.412 467.765,802.232 469.848,632.027 471.931,566.027 474.014,596.479 476.097,665.685 478.18,688.307 480.263,642.934 482.346,676.263 484.429,700.854 486.512,577.914 488.595,527.478 490.678,439.423 492.761,363.5 494.844,336.214 496.927,472.523 499.01,462.517 501.093,420.558 503.176,405.741 505.259,408.593 507.342,379.234 509.425,468.991 511.508,557.293 513.591,607.125 515.674,605.277 517.757,599.415 519.84,427.839 521.923,324.29 524.006,373.554 526.089,394.169 528.172,322.497 530.255,270.902 532.338,374.406 534.421,471.226 536.504,510.871 538.587,572.347 540.67,537.755 542.753,532.342 544.836,572.443 546.919,620.675 549.002,659.783 551.085,825.018 553.168,884.339 555.251,820.142 557.334,782.938 559.417,700.265 561.5,660.744 563.583,577.085 565.666,615.646 567.749,564.292 569.832,503.771 571.915,549.856 573.998,542.89 576.081,588.338 578.164,534.872 580.247,628.203 582.33,613.162 584.413,537.785 586.496,453.59 588.579,424.324 590.662,425.051 592.745,414.621 594.828,456.81 596.911,452.982 598.994,350.221 601.077,407.791 603.16,400.134 605.243,428.94 607.326,448.607 609.409,586.567 611.492,633.435 613.575,516.771 615.658,416.222 617.741,473.306 619.824,717.802 621.907,854.927 623.99,817.965 626.073,800.951 628.156,817.316 630.239,870.239 632.322,894.994 634.405,903.623 636.488,908.596 638.571,861.003 640.654,842.757 642.737,895.797 644.82,1022.6 646.903,1030.65 648.986,928.228 651.069,883.587 653.152,794.236 655.235,623.002 657.318,587.816 659.401,637.296 661.484,715.846 663.567,830.163 665.65,849.574 667.733,822.564 669.816,806.695 671.899,857.203 673.982,773.098 676.065,787.889 678.148,825.616 680.231,859.007 682.314,987.277 684.397,1034 686.48,932.068 688.563,850.439 690.646,800.826 692.729,794.882 694.812,817.114 696.895,826.897 698.978,869.852 701.061,897.868 703.144,918.449 705.227,974.912 707.31,1035.43 709.393,1082.29 711.476,1077.53 713.559,1076.1 715.642,1109.57 717.725,1080.82 719.808,1058.17 721.891,912.45 723.974,908.667 726.057,879.084 728.14,907.371 730.223,888.412 732.306,833.158 734.389,865.359 736.472,810.514 738.555,685.568 740.638,563.474 742.721,514.684 744.804,538.407 746.887,558.371 748.97,646.8 751.053,621.424 753.136,518.917 755.219,565.344 757.302,479.977 759.385,445.792 761.468,483.272 763.551,445.446 765.634,512.66 767.717,603.589 769.8,632.769 771.883,572.606 773.966,552.018 776.049,503.324 778.132,549.548 780.215,582.207 782.298,575.941 784.381,490.31 786.464,404.175 788.547,410.456 790.63,416.636 792.713,416.869 794.796,395.809 796.879,481.566 798.962,504.319 801.045,592.616 803.128,441.428 805.211,481.286 807.294,533.879 809.377,536.836 811.46,642.817 813.543,732.822 815.626,829.553 817.709,694.419 819.792,697.204 821.875,622.745 823.958,567.141 826.041,450.895 828.124,403.562 830.207,241.775 832.29,248.084 834.373,261.487 836.456,285.452 838.539,319.933 840.622,381.325 842.705,449.738 844.788,653.388 846.871,758.968 848.954,791.128 851.037,753.822 853.12,609.832 855.203,448.035 857.286,560.104 859.369,742.079 861.452,774.281 863.535,812.891 865.618,796.671 867.701,718.061 869.784,627.744 871.867,665.9 873.95,687.035 876.033,724.314 878.116,801.846 880.199,888.971 882.282,906.799 884.365,902.036 886.448,873.296 888.531,806.009 890.614,804.341 892.697,800.271 894.78,745.019 896.863,706.21 898.946,661.004 901.029,647.163 903.112,696.719 905.195,743.664 907.278,724.779 909.361,741.633 911.444,735.04 913.527,782.733 915.61,703.289 917.693,728.914 919.776,742.1 921.859,693.595 923.942,719.064 926.025,825.186 928.108,855.7 930.191,878.73 932.274,901.08 934.357,804.248 936.44,799.363 938.523,790.753 940.606,716.845 942.689,733.447 944.772,715.382 946.855,641.091 948.938,587.378 951.021,638.207 953.104,692.482 955.187,708.224 957.27,630.89 959.353,601.323 961.436,605.29 963.519,690.9 965.602,764.97 967.685,799.358 969.768,841.698 971.851,783.48 973.934,728.733 976.017,640.579 978.1,455.54 980.183,436.41 982.266,543.408 984.349,603.399 986.432,573.756 988.515,683.286 990.598,696.468 992.681,758.168 994.764,720.028 996.847,633.36 998.93,653.046 1001.01,658.518 1003.1,649.412 1005.18,766.083 1007.26,933.662 1009.35,924.926 1011.43,676.874 1013.51,652.647 1015.59,624.771 1017.68,657.103 1019.76,700.672 1021.84,708.33 1023.93,658.326 1026.01,712.984 1028.09,778.644 1030.18,682.041 1032.26,659.303 1034.34,743.415 1036.42,703.251 1038.51,628.485 1040.59,624.558 1042.67,636.067 1044.76,652.419 1046.84,603.896 1048.92,622.775 1051.01,606.615 1053.09,589.901 1055.17,610.946 1057.25,772.099 1059.34,800.271 1061.42,837.208 1063.5,819.609 1065.59,874.928 1067.67,940.995 1069.75,868.491 1071.84,791.617 1073.92,823.996 1076,841.522 1078.08,730.071 1080.17,722.486 1082.25,581.554 1084.33,543.396 1086.42,555.263 1088.5,666.05 1090.58,748.419 1092.67,673.576 1094.75,686.09 1096.83,736.377 1098.91,752.416 1101,720.344 1103.08,656.153 1105.16,582.112 1107.25,609.08 1109.33,571.231 1111.41,596.764 1113.5,603.483 1115.58,613.595 1117.66,705.35 1119.74,748.833 1121.83,678.251 1123.91,660.759 1125.99,617.858 1128.08,629.574 1130.16,700.966 1132.24,753.871 1134.33,767.341 1136.41,688.61 1138.49,681.918 1140.57,704.947 1142.66,677.61 1144.74,690.064 1146.82,694.347 1148.91,639.662 1150.99,630.642 1153.07,648.038 1155.16,610.462 1157.24,594.794 1159.32,669.794 1161.4,722.97 1163.49,780.901 1165.57,739.45 1167.65,593.896 1169.74,487.294 1171.82,458.538 1173.9,477.689 1175.99,466.427 1178.07,461.672 1180.15,486.91 1182.23,491.635 1184.32,509.337 1186.4,553.909 1188.48,558.306 1190.57,583.583 1192.65,678.626 1194.73,549.712 1196.82,559.641 1198.9,456.54 1200.98,486.341 1203.06,697.534 1205.15,721.137 1207.23,724.255 1209.31,640.649 1211.4,592.106 1213.48,546.026 1215.56,689.527 1217.65,758.377 1219.73,776.964 1221.81,777.568 1223.89,808.69 1225.98,795.624 1228.06,761.559 1230.14,738.572 1232.23,877.239 1234.31,848.62 1236.39,830.941 1238.48,783.883 1240.56,782.911 1242.64,728.142 1244.72,786.917 1246.81,871.475 1248.89,760.506 1250.97,776.644 1253.06,842.707 1255.14,835.654 1257.22,754.068 1259.31,673.414 1261.39,660.911 1263.47,720.398 1265.55,761.727 1267.64,860.162 1269.72,905.703 1271.8,974.79 1273.89,964.459 1275.97,1007.29 1278.05,1005.02 1280.14,930.982 1282.22,850.166 1284.3,872.473 1286.38,798.437 1288.47,708.43 1290.55,608.477 1292.63,612.483 1294.72,735.33 1296.8,858.643 1298.88,902.022 1300.97,828.871 1303.05,849.934 1305.13,953.948 1307.21,956.454 1309.3,939.507 1311.38,973.655 1313.46,959.739 1315.55,816.465 1317.63,799.213 1319.71,767.782 1321.8,800.1 1323.88,797.612 1325.96,800.198 1328.04,1014.78 1330.13,1051.44 1332.21,1056.05 1334.29,1039.73 1336.38,972.164 1338.46,906.622 1340.54,828.845 1342.63,862.716 1344.71,894.58 1346.79,994.382 1348.87,971.914 1350.96,993.677 1353.04,1034.44 1355.12,981.506 1357.21,820.505 1359.29,658.983 1361.37,632.318 1363.46,587.746 1365.54,543.984 1367.62,479.724 1369.7,572.131 1371.79,603.678 1373.87,579.656 1375.95,613.122 1378.04,653.185 1380.12,646.633 1382.2,650.903 1384.29,682.802 1386.37,882.254 1388.45,913.611 1390.53,929.285 1392.62,867.31 1394.7,835.209 1396.78,726.483 1398.87,729.104 1400.95,727.201 1403.03,865.809 1405.12,840.415 1407.2,835.588 1409.28,836.517 1411.36,799.51 1413.45,732.215 1415.53,680.834 1417.61,753.064 1419.7,735.75 1421.78,728.025 1423.86,796.012 1425.95,936.562 1428.03,930.666 1430.11,962.37 1432.19,1027.41 1434.28,1059.08 1436.36,1158.23 1438.44,1217.09 1440.53,1261.46 1442.61,1279.14 1444.69,1197.08 1446.78,1104.01 1448.86,1090.07 1450.94,1074.91 1453.02,1049.8 1455.11,1002.29 1457.19,951.068 1459.27,940.264 1461.36,919.635 1463.44,910.185 1465.52,862.103 1467.61,810.4 1469.69,813.694 1471.77,726.981 1473.85,741.927 1475.94,708.35 1478.02,682.502 1480.1,775.477 1482.19,670.299 1484.27,549.301 1486.35,443.286 1488.44,399.068 1490.52,385.23 1492.6,481.54 1494.68,432.262 1496.77,389.302 1498.85,417.276 1500.93,358.134 1503.02,253.446 1505.1,208.097 1507.18,348.769 1509.27,382.97 1511.35,465.103 1513.43,570.135 1515.51,613.144 1517.6,609.833 1519.68,655.493 1521.76,564.083 1523.85,553.338 1525.93,559.188 1528.01,507.199 1530.1,433.522 1532.18,499.734 1534.26,614.268 1536.34,570.903 1538.43,571.545 1540.51,503.401 1542.59,441.792 1544.68,497.043 1546.76,564.301 1548.84,628.453 1550.93,657.504 1553.01,640.936 1555.09,584.814 1557.17,435.929 1559.26,399.967 1561.34,415.662 1563.42,542.06 1565.51,614.997 1567.59,658.58 1569.67,776.056 1571.76,695.75 1573.84,602.427 1575.92,547.833 1578,557.772 1580.09,475.468 1582.17,431.949 1584.25,523.171 1586.34,614.326 1588.42,582.572 1590.5,784.285 1592.59,778.423 1594.67,796.903 1596.75,832.097 1598.83,783.505 1600.92,789.023 1603,835.363 1605.08,849.412 1607.17,849.446 1609.25,895.041 1611.33,925.434 1613.42,932.116 1615.5,961.409 1617.58,942.807 1619.66,903.407 1621.75,948.963 1623.83,990.268 1625.91,898.587 1628,884.607 1630.08,835.93 1632.16,884.836 1634.25,903.931 1636.33,899.096 1638.41,899.223 1640.49,932.607 1642.58,933.057 1644.66,917.824 1646.74,910.47 1648.83,837.042 1650.91,940.456 1652.99,1083.63 1655.08,1147.55 1657.16,1093.28 1659.24,1034.11 1661.32,979.405 1663.41,870.377 1665.49,786.699 1667.57,662.083 1669.66,662.659 1671.74,645.387 1673.82,614.174 1675.91,629.131 1677.99,579.604 1680.07,580.23 1682.15,593.838 1684.24,624.735 1686.32,640.898 1688.4,557.608 1690.49,457.202 1692.57,494.306 1694.65,477.545 1696.74,563.648 1698.82,606.659 1700.9,682.896 1702.98,710.413 1705.07,780.105 1707.15,739.397 1709.23,686.037 1711.32,786.661 1713.4,754.82 1715.48,723.423 1717.57,652.048 1719.65,651.644 1721.73,614.494 1723.81,718.555 1725.9,796.921 1727.98,776.06 1730.06,716.283 1732.15,654.002 1734.23,611.821 1736.31,577.332 1738.4,711.881 1740.48,713.132 1742.56,687.037 1744.64,654.113 1746.73,645.412 1748.81,527.316 1750.89,529.978 1752.98,568.232 1755.06,605.126 1757.14,561.908 1759.23,485.063 1761.31,456.476 1763.39,457.477 1765.47,471.78 1767.56,507.74 1769.64,609.056 1771.72,571.575 1773.81,581.661 1775.89,637.478 1777.97,564.233 1780.06,593.58 1782.14,523.607 1784.22,486.578 1786.3,396.537 1788.39,466.06 1790.47,519.142 1792.55,534.353 1794.64,620.896 1796.72,722.295 1798.8,860.24 1800.89,890.366 1802.97,803.38 1805.05,736.982 1807.13,792.382 1809.22,710.525 1811.3,577.522 1813.38,473.322 1815.47,451.568 1817.55,399.447 1819.63,392.399 1821.72,553.216 1823.8,637.118 1825.88,599.318 1827.96,500.774 1830.05,521.584 1832.13,517.103 1834.21,546.222 1836.3,558.354 1838.38,606.16 1840.46,601.429 1842.55,629.821 1844.63,652.239 1846.71,746.302 1848.79,883.996 1850.88,962.969 1852.96,858.771 1855.04,756.528 1857.13,642.961 1859.21,599.394 1861.29,589.767 1863.38,638.717 1865.46,555.486 1867.54,570.177 1869.62,563.121 1871.71,477.648 1873.79,411.825 1875.87,356.048 1877.96,374.743 1880.04,333.006 1882.12,271.927 1884.21,277.268 1886.29,277.096 1888.37,307.286 1890.45,258.625 1892.54,247.424 1894.62,287.84 1896.7,368.696 1898.79,420.275 1900.87,348.934 1902.95,317.442 1905.04,386.589 1907.12,378.506 1909.2,402.516 1911.28,483.579 1913.37,426.047 1915.45,405.033 1917.53,444.397 1919.62,447.044 1921.7,454.381 1923.78,493.823 1925.87,566.922 1927.95,626.204 1930.03,643.431 1932.11,662.337 1934.2,623.833 1936.28,598.516 1938.36,548.094 1940.45,598.058 1942.53,617.109 1944.61,701.942 1946.7,644.927 1948.78,628.826 1950.86,608.273 1952.94,562.722 1955.03,634.26 1957.11,666.245 1959.19,559.236 1961.28,411.335 1963.36,310 1965.44,278.457 1967.53,364.966 1969.61,366.505 1971.69,321.709 1973.77,450.872 1975.86,548.099 1977.94,610.391 1980.02,743.723 1982.11,833.321 1984.19,877.738 1986.27,894.324 1988.36,996.986 1990.44,924.54 1992.52,827.243 1994.6,796.862 1996.69,772.983 1998.77,802.792 2000.85,865.858 2002.94,968.584 2005.02,990.074 2007.1,1007.09 2009.19,1006.23 2011.27,904.809 2013.35,812.5 2015.43,788.527 2017.52,804.618 2019.6,743.753 2021.68,617.572 2023.77,589.385 2025.85,540.368 2027.93,519.461 2030.02,555.783 2032.1,621.88 2034.18,673.295 2036.26,619.196 2038.35,702.211 2040.43,722.435 2042.51,800.671 2044.6,892.267 2046.68,913.762 2048.76,944.365 2050.85,1063.44 2052.93,1084.81 2055.01,1083.58 2057.09,1047.35 2059.18,944.172 2061.26,979.653 2063.34,878.672 2065.43,847.66 2067.51,788.973 2069.59,752.679 2071.68,767.036 2073.76,784.638 2075.84,748.183 2077.92,721.704 2080.01,679.697 2082.09,596.389 2084.17,578.742 2086.26,598.335 2088.34,717.644 2090.42,705.172 2092.51,777.616 2094.59,756.365 2096.67,814.111 2098.75,966.599 2100.84,1066.58 2102.92,1101.9 2105,945.72 2107.09,904.177 2109.17,906.61 2111.25,939.454 2113.34,900.296 2115.42,924.344 2117.5,913.705 2119.58,941.871 2121.67,894.668 2123.75,871.496 2125.83,857.346 2127.92,972.345 2130,970.019 2132.08,858.922 2134.17,847.065 2136.25,848.577 2138.33,841.893 2140.41,792.925 2142.5,798.477 2144.58,805.114 2146.66,801.514 2148.75,732.926 2150.83,687.55 2152.91,676.679 2155,680.003 2157.08,534.266 2159.16,515.652 2161.24,490.206 2163.33,439.887 2165.41,373.003 2167.49,407.68 2169.58,472.749 2171.66,529.123 2173.74,462.325 2175.83,470.593 2177.91,574.867 2179.99,650.561 2182.07,742.299 2184.16,756.418 2186.24,765.528 2188.32,793.038 2190.41,716.967 2192.49,663.673 2194.57,633.22 2196.66,680.175 2198.74,766.969 2200.82,819.464 2202.9,767.499 2204.99,667.815 2207.07,781.6 2209.15,916.699 2211.24,1022.53 2213.32,1056.35 2215.4,985.849 2217.49,892.108 2219.57,825.298 2221.65,732.138 2223.73,708.67 2225.82,700.419 2227.9,639.469 2229.98,622.072 2232.07,664.962 2234.15,723.764 2236.23,740.417 2238.32,808.234 2240.4,891.839 2242.48,889.532 2244.56,844.038 2246.65,754.202 2248.73,728.053 2250.81,553.849 2252.9,418.758 2254.98,396.006 2257.06,502.629 2259.15,503.849 2261.23,583.163 2263.31,633.413 2265.39,745.878 2267.48,769.127 2269.56,796.798 2271.64,781.579 2273.73,782.585 2275.81,724.852 2277.89,690.049 2279.98,748.558 2282.06,809.232 2284.14,758.625 2286.22,745.467 2288.31,911.981 2290.39,864.926 "></polyline>
<polyline clip-path="url(#clip062)" style="stroke:#e26f46; stroke-linecap:round; stroke-linejoin:round; stroke-width:4; stroke-opacity:1; fill:none" points="211.556,845.075 213.639,794.494 215.722,655.34 217.805,607.283 219.888,652.143 221.971,697.621 224.054,614.264 226.137,640.633 228.22,588.076 230.303,630.391 232.386,619.685 234.469,668.601 236.552,596.585 238.635,769.067 240.718,820.142 242.801,708.463 244.884,984.278 246.967,932.585 249.05,1087.9 251.133,971.917 253.216,899.28 255.299,1131.29 257.382,1155.46 259.465,1135.52 261.548,1091.75 263.631,934.855 265.714,991.211 267.797,997.667 269.88,967.156 271.963,927.096 274.046,939.723 276.129,993.56 278.212,994.864 280.295,1277.95 282.378,1336.44 284.461,1285.49 286.544,1145.1 288.627,1238.95 290.71,992.895 292.793,1092.33 294.876,1076.05 296.959,1166.03 299.042,1175.41 301.125,1130.12 303.208,1165.81 305.291,1035.56 307.374,1029.07 309.457,1073.33 311.54,1166.48 313.623,1049.4 315.706,968.683 317.789,832.583 319.872,938.054 321.955,810.394 324.038,584.44 326.121,588.521 328.204,486.587 330.287,427.638 332.37,484.532 334.453,586.786 336.536,475.234 338.619,547.735 340.702,518.216 342.785,550.688 344.868,517.868 346.951,559.625 349.034,643.43 351.117,563.343 353.2,559.099 355.283,810.688 357.366,816.369 359.449,614.907 361.532,570.477 363.615,574.057 365.698,508.728 367.781,690.622 369.864,563.461 371.947,636.023 374.03,600.215 376.113,547.709 378.196,733.69 380.279,836.31 382.362,1009.31 384.445,844.434 386.528,832.093 388.611,807.787 390.694,782.491 392.777,855.183 394.86,668.045 396.943,753.302 399.026,723.472 401.109,680.37 403.192,508.255 405.275,498.97 407.358,579.526 409.441,595.104 411.524,471.78 413.607,522.032 415.69,446.258 417.773,544.986 419.856,542.952 421.939,460.776 424.022,515.021 426.105,609.812 428.188,718.361 430.271,795.735 432.354,928.18 434.437,1063.45 436.52,1048.32 438.603,1037.13 440.686,802.325 442.769,853.602 444.852,1011.86 446.935,1052.32 449.018,1026.1 451.101,811.573 453.184,894.519 455.267,854.277 457.35,886.405 459.433,853.643 461.516,962.367 463.599,831.102 465.682,820.52 467.765,808.269 469.848,549.517 471.931,535.119 474.014,604.497 476.097,686.96 478.18,685.462 480.263,609.412 482.346,686.548 484.429,704.547 486.512,505.815 488.595,492.707 490.678,371.531 492.761,287.836 494.844,276.124 496.927,506.619 499.01,415.105 501.093,360.947 503.176,360.128 505.259,370.509 507.342,320.074 509.425,478.423 511.508,566.144 513.591,603.041 515.674,583.351 517.757,581.066 519.84,318.778 521.923,233.751 524.006,361.502 526.089,359.834 528.172,230.14 530.255,180.024 532.338,380.981 534.421,474.503 536.504,490.936 538.587,572.745 540.67,494.895 542.753,509.364 544.836,572.16 546.919,624.803 549.002,662.713 551.085,901.316 553.168,914.545 555.251,794.798 557.334,779.271 559.417,668.237 561.5,646.479 563.583,531.076 565.666,628.147 567.749,522.538 569.832,455.549 571.915,554.459 573.998,515.313 576.081,590.16 578.164,485.331 580.247,658.163 582.33,585.412 584.413,483.737 586.496,390.274 588.579,381.753 590.662,391.671 592.745,370.992 594.828,442.47 596.911,413.791 598.994,251.802 601.077,400.362 603.16,351.769 605.243,403.66 607.326,419.821 609.409,624.136 611.492,627.837 613.575,437.685 615.658,342.96 617.741,478.229 619.824,815.265 621.907,905.733 623.99,794.538 626.073,803.022 628.156,838.125 630.239,911.887 632.322,923.998 634.405,928.672 636.488,934.925 638.571,856.477 640.654,854.51 642.737,946.123 644.82,1130.05 646.903,1071.68 648.986,901.535 651.069,894.135 653.152,769.513 655.235,546.459 657.318,575.035 659.401,656.082 661.484,744.372 663.567,882.816 665.65,859.037 667.733,816.318 669.816,810.38 671.899,897.976 673.982,736.697 676.065,808.704 678.148,854.385 680.231,886.885 682.314,1084.83 684.397,1095.91 686.48,902.074 688.563,837.865 690.646,798.83 692.729,808.393 694.812,840.541 696.895,841.822 698.978,906.254 701.061,928.956 703.144,950.641 705.227,1037.19 707.31,1112.74 709.393,1166.61 711.476,1132.78 713.559,1139.01 715.642,1205.43 717.725,1126.99 719.808,1107.69 721.891,867.647 723.974,950.487 726.057,891.341 728.14,951.264 730.223,900.085 732.306,823.144 734.389,905 736.472,794.527 738.555,631.032 740.638,504.22 742.721,482.364 744.804,534.844 746.887,546.959 748.97,671.746 751.053,588.942 753.136,450.669 755.219,574.73 757.302,411.58 759.385,402.485 761.468,474.201 763.551,391.846 765.634,517.89 767.717,620.454 769.8,623.181 771.883,524.854 773.966,527.413 776.049,459.374 778.132,553.126 780.215,575.715 782.298,552.018 784.381,425.988 786.464,332.269 788.547,381.623 790.63,381.639 792.713,377.241 794.796,343.095 796.879,489.979 798.962,479.935 801.045,608.637 803.128,334.478 805.211,479.746 807.294,532.319 809.377,511.156 811.46,674.311 813.543,759.282 815.626,871.781 817.709,622.974 819.792,706.052 821.875,582.995 823.958,533.687 826.041,373.916 828.124,352.134 830.207,87.9763 832.29,186.879 834.373,198.774 836.456,230.408 838.539,275.431 840.622,359.199 842.705,437.926 844.788,718.866 846.871,783.751 848.954,797.085 851.037,735.843 853.12,541.336 855.203,359.924 857.286,606.836 859.369,813.426 861.452,774.263 863.535,831.919 865.618,792.706 867.701,684.685 869.784,586.891 871.867,685.148 873.95,689.713 876.033,736.5 878.116,838.763 880.199,939.885 882.282,928.386 884.365,919.332 886.448,879.161 888.531,788.919 890.614,820.682 892.697,809.227 894.78,723.791 896.863,692.421 898.946,638.844 901.029,637.055 903.112,715.747 905.195,760.055 907.278,709.775 909.361,749.843 911.444,730.673 913.527,809.116 915.61,661.609 917.693,745.942 919.776,747.772 921.859,667.223 923.942,732.438 926.025,880.808 928.108,874.132 930.191,902.97 932.274,931.181 934.357,767.308 936.44,815.24 938.523,797.271 940.606,685.159 942.689,748.468 944.772,705.982 946.855,601.105 948.938,555.416 951.021,655.472 953.104,706.964 955.187,705.372 957.27,583.821 959.353,580.418 961.436,596.582 963.519,721.933 965.602,791.195 967.685,812.535 969.768,868.32 971.851,759.228 973.934,710.11 976.017,599.973 978.1,350.853 980.183,409.266 982.266,574.613 984.349,605.468 986.432,535.22 988.515,722.723 990.598,686.898 992.681,782.656 994.764,695.704 996.847,588.711 998.93,661.154 1001.01,652.758 1003.1,635.835 1005.18,819.413 1007.26,1026.59 1009.35,929.019 1011.43,559.092 1013.51,657.444 1015.59,609.324 1017.68,666.893 1019.76,712.95 1021.84,703.678 1023.93,626.916 1026.01,737.523 1028.09,807.232 1030.18,628.206 1032.26,649.047 1034.34,783.801 1036.42,675.855 1038.51,587.69 1040.59,618.186 1042.67,632.001 1044.76,649.273 1046.84,567.278 1048.92,621.991 1051.01,584.611 1053.09,567.854 1055.17,607.384 1057.25,842.039 1059.34,804.197 1061.42,859.809 1063.5,817.926 1065.59,919.563 1067.67,997.305 1069.75,845.806 1071.84,771.507 1073.92,859.764 1076,862.782 1078.08,679.754 1080.17,728.958 1082.25,507.544 1084.33,518.923 1086.42,546.72 1088.5,705.157 1090.58,773.436 1092.67,624.53 1094.75,690.193 1096.83,757.297 1098.91,756.291 1101,702.592 1103.08,623.255 1105.16,540.804 1107.25,614.88 1109.33,536.583 1111.41,595.112 1113.5,589.698 1115.58,602.89 1117.66,738.261 1119.74,759.195 1121.83,636.357 1123.91,650.768 1125.99,590.198 1128.08,627.593 1130.16,726.736 1132.24,771.327 1134.33,770.17 1136.41,647.946 1138.49,680.539 1140.57,713.74 1142.66,658.386 1144.74,692.55 1146.82,690.964 1148.91,605.849 1150.99,620.309 1153.07,647.533 1155.16,579.775 1157.24,575.659 1159.32,695.516 1161.4,736.796 1163.49,803.831 1165.57,715.414 1167.65,520.04 1169.74,426.584 1171.82,425.457 1173.9,461.355 1175.99,429.132 1178.07,427.315 1180.15,468.577 1182.23,462.59 1184.32,489.207 1186.4,549.521 1188.48,535.423 1190.57,575.306 1192.65,708.165 1194.73,467.086 1196.82,553.985 1198.9,381.345 1200.98,479.608 1203.06,780.624 1205.15,709.747 1207.23,717.664 1209.31,594.664 1211.4,564.423 1213.48,512.251 1215.56,750.031 1217.65,777.778 1219.73,780.462 1221.81,779.385 1223.89,830.832 1225.98,794.922 1228.06,751.624 1230.14,733.588 1232.23,960.961 1234.31,838.089 1236.39,835.821 1238.48,771.884 1240.56,794.208 1242.64,705.796 1244.72,824.633 1246.81,922.856 1248.89,705.783 1250.97,797.906 1253.06,886.423 1255.14,839.19 1257.22,720.448 1259.31,640.396 1261.39,657.276 1263.47,747.626 1265.55,777.499 1267.64,914.217 1269.72,938.995 1271.8,1038.04 1273.89,986.041 1275.97,1073.47 1278.05,1044.35 1280.14,923.215 1282.22,836.727 1284.3,912.925 1286.38,774.255 1288.47,674.348 1290.55,561.908 1292.63,612.834 1294.72,790.745 1296.8,917.408 1298.88,929.408 1300.97,799.857 1303.05,880.392 1305.13,1035.46 1307.21,980.741 1309.3,959.251 1311.38,1029.7 1313.46,984.813 1315.55,761.934 1317.63,815.844 1319.71,764.431 1321.8,827.715 1323.88,802.618 1325.96,809.534 1328.04,1165.48 1330.13,1106.03 1332.21,1107.15 1334.29,1082.3 1336.38,976.692 1338.46,908.233 1340.54,815.314 1342.63,907.087 1344.71,931.761 1346.79,1082.74 1348.87,986.672 1350.96,1046.87 1353.04,1106.45 1355.12,989.06 1357.21,760.646 1359.29,596.96 1361.37,630.269 1363.46,560.254 1365.54,509.52 1367.62,426.414 1369.7,600.63 1371.79,595.234 1373.87,546.957 1375.95,613.757 1378.04,657.147 1380.12,629.232 1382.2,642.603 1384.29,689.514 1386.37,985.629 1388.45,933.111 1390.53,957.37 1392.62,854.41 1394.7,840.908 1396.78,684.36 1398.87,742.507 1400.95,728.816 1403.03,945.327 1405.12,829.314 1407.2,846.023 1409.28,850.771 1411.36,791.818 1413.45,707.19 1415.53,660.791 1417.61,793.229 1419.7,723.298 1421.78,724.419 1423.86,833.505 1425.95,1023.62 1428.03,940.504 1430.11,1009.58 1432.19,1107.2 1434.28,1127.81 1436.36,1307.47 1438.44,1368.71 1440.53,1434.38 1442.61,1445.72 1444.69,1241.33 1446.78,1126.97 1448.86,1166.67 1450.94,1137.86 1453.02,1097.53 1455.11,1026.72 1457.19,966.423 1459.27,975.557 1461.36,941.81 1463.44,935.934 1465.52,860.25 1467.61,803.701 1469.69,833.771 1471.77,690.529 1473.85,759.727 1475.94,692.627 1478.02,669.777 1480.1,824.555 1482.19,610.374 1484.27,484.508 1486.35,373.01 1488.44,347.892 1490.52,340.249 1492.6,497.121 1494.68,365.94 1496.77,327.199 1498.85,393.543 1500.93,279.584 1503.02,130.302 1505.1,102.195 1507.18,371.817 1509.27,343.839 1511.35,461.992 1513.43,585.247 1515.51,605.194 1517.6,588.504 1519.68,664.725 1521.76,504.782 1523.85,537.149 1525.93,545.606 1528.01,460.562 1530.1,370.424 1532.18,508.621 1534.26,644.105 1536.34,523.824 1538.43,554.984 1540.51,449.02 1542.59,386.32 1544.68,499.925 1546.76,569.845 1548.84,635.648 1550.93,652.965 1553.01,619.548 1555.09,546.217 1557.17,341.729 1559.26,355.511 1561.34,389.614 1563.42,574.132 1565.51,619.739 1567.59,657.779 1569.67,822.874 1571.76,646.086 1573.84,555.153 1575.92,514.529 1578,549.838 1580.09,411.299 1582.17,383.202 1584.25,543.353 1586.34,631.345 1588.42,542.331 1590.5,874.336 1592.59,762.306 1594.67,809.07 1596.75,857.732 1598.83,765.668 1600.92,803.074 1603,869.652 1605.08,866.773 1607.17,862.668 1609.25,937.931 1611.33,962.913 1613.42,960.383 1615.5,1009.12 1617.58,961.93 1619.66,910.41 1621.75,1008.21 1623.83,1048.76 1625.91,872.428 1628,908.003 1630.08,831.253 1632.16,934.551 1634.25,933.532 1636.33,917.341 1638.41,922.572 1640.49,977.973 1642.58,959.385 1644.66,936.55 1646.74,934.128 1648.83,818.516 1650.91,1028.58 1652.99,1218.42 1655.08,1259.06 1657.16,1118.65 1659.24,1057.38 1661.32,998.882 1663.41,845.416 1665.49,769.975 1667.57,611.359 1669.66,671.122 1671.74,632.561 1673.82,590.204 1675.91,627.234 1677.99,540.393 1680.07,567.194 1682.15,584.364 1684.24,623.853 1686.32,633.466 1688.4,500.289 1690.49,387.195 1692.57,492.502 1694.65,439.309 1696.74,581.398 1698.82,601.977 1700.9,701.883 1702.98,710.052 1705.07,810.074 1707.15,715.601 1709.23,661.437 1711.32,841.811 1713.4,736.076 1715.48,710.906 1717.57,616.99 1719.65,650.311 1721.73,587.729 1723.81,764.204 1725.9,828.522 1727.98,762.311 1730.06,689.057 1732.15,625.058 1734.23,587.969 1736.31,550.918 1738.4,770.125 1740.48,699.412 1742.56,667.759 1744.64,633.16 1746.73,635.386 1748.81,455.561 1750.89,518.594 1752.98,567.808 1755.06,602.694 1757.14,520.072 1759.23,425.886 1761.31,417.776 1763.39,428.671 1765.47,447.416 1767.56,495.182 1769.64,632.536 1771.72,527.658 1773.81,569.561 1775.89,648.608 1777.97,510.177 1780.06,595.617 1782.14,469.51 1784.22,448.151 1786.3,318.655 1788.39,473.256 1790.47,512.889 1792.55,511.957 1794.64,640.272 1796.72,753.177 1798.8,923.706 1800.89,909.346 1802.97,768.709 1805.05,718.245 1807.13,832.712 1809.22,670.885 1811.3,511.731 1813.38,411.047 1815.47,420.214 1817.55,338.141 1819.63,350.352 1821.72,603.151 1823.8,645.727 1825.88,556.822 1827.96,433.176 1830.05,514.606 1832.13,490.501 1834.21,537.299 1836.3,540.774 1838.38,609.481 1840.46,579.792 1842.55,629.065 1844.63,649.478 1846.71,783.842 1848.79,954.41 1850.88,1019.3 1852.96,816.888 1855.04,724.773 1857.13,598.083 1859.21,580.317 1861.29,577.243 1863.38,651.253 1865.46,496.346 1867.54,564.061 1869.62,540.604 1871.71,411.195 1873.79,349.071 1875.87,286.19 1877.96,342.101 1880.04,257.772 1882.12,174.26 1884.21,215.763 1886.29,208.964 1888.37,260.46 1890.45,158.678 1892.54,167.452 1894.62,243.312 1896.7,354.98 1898.79,396.281 1900.87,260.085 1902.95,248.956 1905.04,377.139 1907.12,325.118 1909.2,371.298 1911.28,486.678 1913.37,357.695 1915.45,358.689 1917.53,429.599 1919.62,411.877 1921.7,423.954 1923.78,482.198 1925.87,574.901 1927.95,631.181 1930.03,633.92 1932.11,659.8 1934.2,594.835 1936.28,577.459 1938.36,510.542 1940.45,609.561 1942.53,609.118 1944.61,730.756 1946.7,603.571 1948.78,614.441 1950.86,588.523 1952.94,527.46 1955.03,657.514 1957.11,666.231 1959.19,491.313 1961.28,314.933 1963.36,214.553 1965.44,204.954 1967.53,362.905 1969.61,313.148 1971.69,240.769 1973.77,476.158 1975.86,556.189 1977.94,609.684 1980.02,790.102 1982.11,869.217 1984.19,905.401 1986.27,918.334 1988.36,1087.37 1990.44,908.03 1992.52,802.567 1994.6,804.519 1996.69,774.486 1998.77,828.854 2000.85,909.682 2002.94,1046.53 2005.02,1029.43 2007.1,1055.73 2009.19,1048.07 2011.27,879.494 2013.35,791.899 2015.43,797.665 2017.52,826.663 2019.6,718.43 2021.68,555.947 2023.77,574.192 2025.85,502.797 2027.93,491.141 2030.02,553.793 2032.1,633.655 2034.18,679.94 2036.26,576.77 2038.35,735.97 2040.43,722.025 2042.51,838.113 2044.6,945.827 2046.68,938.073 2048.76,985.761 2050.85,1181.89 2052.93,1150.95 2055.01,1144.47 2057.09,1082.88 2059.18,928.042 2061.26,1049.98 2063.34,850.179 2065.43,859.962 2067.51,776.154 2069.59,747.172 2071.68,783.385 2073.76,798.81 2075.84,732.422 2077.92,712.173 2080.01,659.014 2082.09,550.162 2084.17,562.452 2086.26,594.997 2088.34,764.569 2090.42,684.591 2092.51,811.441 2094.59,742.337 2096.67,849.332 2098.75,1067.52 2100.84,1163.52 2102.92,1180.36 2105,889.176 2107.09,925.264 2109.17,941.891 2111.25,988.403 2113.34,902.685 2115.42,967.502 2117.5,933.301 2119.58,987.661 2121.67,892.407 2123.75,884.353 2125.83,871.466 2127.92,1067.81 2130,994.52 2132.08,820.881 2134.17,868.579 2136.25,869.235 2138.33,854.489 2140.41,779.941 2142.5,814.789 2144.58,818.167 2146.66,808.253 2148.75,703.698 2150.83,670.031 2152.91,671.881 2155,677.959 2157.08,449.221 2159.16,495.275 2161.24,455.223 2163.33,384.831 2165.41,299.306 2167.49,388.382 2169.58,468.321 2171.66,522.447 2173.74,394.664 2175.83,446.483 2177.91,600.008 2179.99,662.139 2182.07,771.135 2184.16,754.149 2186.24,769.977 2188.32,811.079 2190.41,681.298 2192.49,641.495 2194.57,616.784 2196.66,698.615 2198.74,804.054 2200.82,843.392 2202.9,742.228 2204.99,622.467 2207.07,846.577 2209.15,994.725 2211.24,1108.03 2213.32,1117.86 2215.4,982.912 2217.49,876.375 2219.57,819.398 2221.65,701.601 2223.73,707.923 2225.82,698.592 2227.9,604.98 2229.98,608.17 2232.07,678.085 2234.15,743.483 2236.23,741.059 2238.32,842.733 2240.4,942.853 2242.48,899.41 2244.56,836.053 2246.65,722.395 2248.73,726.85 2250.81,463.636 2252.9,334.437 2254.98,357.107 2257.06,529.234 2259.15,469.587 2261.23,595.992 2263.31,633.733 2265.39,786.041 2267.48,770.028 2269.56,810.992 2271.64,777.359 2273.73,790.209 2275.81,700.281 2277.89,676.875 2279.98,780.126 2282.06,840.221 2284.14,733.141 2286.22,744.971 2288.31,1013.85 2290.39,845.164 "></polyline>
<path clip-path="url(#clip060)" d="M1613.76 1438.47 L2279.3 1438.47 L2279.3 1282.95 L1613.76 1282.95  Z" fill="#ffffff" fill-rule="evenodd" fill-opacity="1"></path>
<polyline clip-path="url(#clip060)" style="stroke:#000000; stroke-linecap:round; stroke-linejoin:round; stroke-width:4; stroke-opacity:1; fill:none" points="1613.76,1438.47 2279.3,1438.47 2279.3,1282.95 1613.76,1282.95 1613.76,1438.47 "></polyline>
<polyline clip-path="url(#clip060)" style="stroke:#009af9; stroke-linecap:round; stroke-linejoin:round; stroke-width:4; stroke-opacity:1; fill:none" points="1638.25,1334.79 1785.15,1334.79 "></polyline>
<path clip-path="url(#clip060)" d="M1831.35 1336.43 L1831.35 1352.07 L1827.09 1352.07 L1827.09 1336.57 Q1827.09 1332.88 1825.66 1331.06 Q1824.22 1329.23 1821.35 1329.23 Q1817.9 1329.23 1815.91 1331.43 Q1813.92 1333.63 1813.92 1337.42 L1813.92 1352.07 L1809.64 1352.07 L1809.64 1326.15 L1813.92 1326.15 L1813.92 1330.18 Q1815.45 1327.84 1817.51 1326.68 Q1819.59 1325.52 1822.3 1325.52 Q1826.77 1325.52 1829.06 1328.3 Q1831.35 1331.06 1831.35 1336.43 Z" fill="#000000" fill-rule="nonzero" fill-opacity="1"></path><path clip-path="url(#clip060)" d="M1862.02 1338.05 L1862.02 1340.13 L1842.44 1340.13 Q1842.72 1344.53 1845.08 1346.84 Q1847.46 1349.13 1851.7 1349.13 Q1854.15 1349.13 1856.44 1348.53 Q1858.76 1347.93 1861.03 1346.73 L1861.03 1350.75 Q1858.73 1351.73 1856.33 1352.24 Q1853.92 1352.75 1851.44 1352.75 Q1845.24 1352.75 1841.6 1349.13 Q1837.99 1345.52 1837.99 1339.37 Q1837.99 1333 1841.42 1329.27 Q1844.87 1325.52 1850.7 1325.52 Q1855.93 1325.52 1858.97 1328.9 Q1862.02 1332.26 1862.02 1338.05 M1857.76 1336.8 Q1857.72 1333.3 1855.79 1331.22 Q1853.9 1329.13 1850.75 1329.13 Q1847.18 1329.13 1845.03 1331.15 Q1842.9 1333.16 1842.58 1336.82 L1857.76 1336.8 Z" fill="#000000" fill-rule="nonzero" fill-opacity="1"></path><path clip-path="url(#clip060)" d="M1868.57 1341.84 L1868.57 1326.15 L1872.83 1326.15 L1872.83 1341.68 Q1872.83 1345.36 1874.27 1347.21 Q1875.7 1349.04 1878.57 1349.04 Q1882.02 1349.04 1884.01 1346.84 Q1886.03 1344.64 1886.03 1340.85 L1886.03 1326.15 L1890.28 1326.15 L1890.28 1352.07 L1886.03 1352.07 L1886.03 1348.09 Q1884.47 1350.45 1882.41 1351.61 Q1880.38 1352.75 1877.67 1352.75 Q1873.2 1352.75 1870.89 1349.97 Q1868.57 1347.19 1868.57 1341.84 M1879.29 1325.52 L1879.29 1325.52 Z" fill="#000000" fill-rule="nonzero" fill-opacity="1"></path><path clip-path="url(#clip060)" d="M1914.08 1330.13 Q1913.36 1329.71 1912.51 1329.53 Q1911.67 1329.32 1910.65 1329.32 Q1907.04 1329.32 1905.1 1331.68 Q1903.18 1334.02 1903.18 1338.42 L1903.18 1352.07 L1898.9 1352.07 L1898.9 1326.15 L1903.18 1326.15 L1903.18 1330.18 Q1904.52 1327.82 1906.67 1326.68 Q1908.83 1325.52 1911.9 1325.52 Q1912.34 1325.52 1912.88 1325.59 Q1913.41 1325.64 1914.06 1325.76 L1914.08 1330.13 Z" fill="#000000" fill-rule="nonzero" fill-opacity="1"></path><path clip-path="url(#clip060)" d="M1930.33 1339.04 Q1925.17 1339.04 1923.18 1340.22 Q1921.19 1341.4 1921.19 1344.25 Q1921.19 1346.52 1922.67 1347.86 Q1924.17 1349.18 1926.74 1349.18 Q1930.28 1349.18 1932.41 1346.68 Q1934.57 1344.16 1934.57 1339.99 L1934.57 1339.04 L1930.33 1339.04 M1938.83 1337.28 L1938.83 1352.07 L1934.57 1352.07 L1934.57 1348.14 Q1933.11 1350.5 1930.93 1351.63 Q1928.76 1352.75 1925.61 1352.75 Q1921.63 1352.75 1919.27 1350.52 Q1916.93 1348.28 1916.93 1344.53 Q1916.93 1340.15 1919.84 1337.93 Q1922.78 1335.71 1928.59 1335.71 L1934.57 1335.71 L1934.57 1335.29 Q1934.57 1332.35 1932.62 1330.76 Q1930.7 1329.13 1927.21 1329.13 Q1924.98 1329.13 1922.88 1329.67 Q1920.77 1330.2 1918.83 1331.26 L1918.83 1327.33 Q1921.16 1326.43 1923.36 1325.99 Q1925.56 1325.52 1927.65 1325.52 Q1933.27 1325.52 1936.05 1328.44 Q1938.83 1331.36 1938.83 1337.28 Z" fill="#000000" fill-rule="nonzero" fill-opacity="1"></path><path clip-path="url(#clip060)" d="M1947.6 1316.06 L1951.86 1316.06 L1951.86 1352.07 L1947.6 1352.07 L1947.6 1316.06 Z" fill="#000000" fill-rule="nonzero" fill-opacity="1"></path><path clip-path="url(#clip060)" d="M1997.39 1336.43 L1997.39 1352.07 L1993.13 1352.07 L1993.13 1336.57 Q1993.13 1332.88 1991.7 1331.06 Q1990.26 1329.23 1987.39 1329.23 Q1983.94 1329.23 1981.95 1331.43 Q1979.96 1333.63 1979.96 1337.42 L1979.96 1352.07 L1975.68 1352.07 L1975.68 1326.15 L1979.96 1326.15 L1979.96 1330.18 Q1981.49 1327.84 1983.55 1326.68 Q1985.63 1325.52 1988.34 1325.52 Q1992.81 1325.52 1995.1 1328.3 Q1997.39 1331.06 1997.39 1336.43 Z" fill="#000000" fill-rule="nonzero" fill-opacity="1"></path><path clip-path="url(#clip060)" d="M2028.06 1338.05 L2028.06 1340.13 L2008.48 1340.13 Q2008.76 1344.53 2011.12 1346.84 Q2013.5 1349.13 2017.74 1349.13 Q2020.19 1349.13 2022.48 1348.53 Q2024.8 1347.93 2027.07 1346.73 L2027.07 1350.75 Q2024.77 1351.73 2022.37 1352.24 Q2019.96 1352.75 2017.48 1352.75 Q2011.28 1352.75 2007.65 1349.13 Q2004.03 1345.52 2004.03 1339.37 Q2004.03 1333 2007.46 1329.27 Q2010.91 1325.52 2016.74 1325.52 Q2021.97 1325.52 2025.01 1328.9 Q2028.06 1332.26 2028.06 1338.05 M2023.8 1336.8 Q2023.76 1333.3 2021.83 1331.22 Q2019.94 1329.13 2016.79 1329.13 Q2013.22 1329.13 2011.07 1331.15 Q2008.94 1333.16 2008.62 1336.82 L2023.8 1336.8 Z" fill="#000000" fill-rule="nonzero" fill-opacity="1"></path><path clip-path="url(#clip060)" d="M2039.27 1318.79 L2039.27 1326.15 L2048.04 1326.15 L2048.04 1329.46 L2039.27 1329.46 L2039.27 1343.53 Q2039.27 1346.7 2040.12 1347.61 Q2041 1348.51 2043.66 1348.51 L2048.04 1348.51 L2048.04 1352.07 L2043.66 1352.07 Q2038.73 1352.07 2036.86 1350.25 Q2034.98 1348.39 2034.98 1343.53 L2034.98 1329.46 L2031.86 1329.46 L2031.86 1326.15 L2034.98 1326.15 L2034.98 1318.79 L2039.27 1318.79 Z" fill="#000000" fill-rule="nonzero" fill-opacity="1"></path><path clip-path="url(#clip060)" d="M2081.83 1316.06 L2081.83 1319.6 L2077.76 1319.6 Q2075.47 1319.6 2074.57 1320.52 Q2073.69 1321.45 2073.69 1323.86 L2073.69 1326.15 L2080.7 1326.15 L2080.7 1329.46 L2073.69 1329.46 L2073.69 1352.07 L2069.4 1352.07 L2069.4 1329.46 L2065.33 1329.46 L2065.33 1326.15 L2069.4 1326.15 L2069.4 1324.34 Q2069.4 1320.01 2071.42 1318.05 Q2073.43 1316.06 2077.81 1316.06 L2081.83 1316.06 Z" fill="#000000" fill-rule="nonzero" fill-opacity="1"></path><path clip-path="url(#clip060)" d="M2095.45 1329.13 Q2092.02 1329.13 2090.03 1331.82 Q2088.04 1334.48 2088.04 1339.13 Q2088.04 1343.79 2090.01 1346.47 Q2092 1349.13 2095.45 1349.13 Q2098.85 1349.13 2100.84 1346.45 Q2102.83 1343.76 2102.83 1339.13 Q2102.83 1334.53 2100.84 1331.84 Q2098.85 1329.13 2095.45 1329.13 M2095.45 1325.52 Q2101 1325.52 2104.17 1329.13 Q2107.34 1332.75 2107.34 1339.13 Q2107.34 1345.5 2104.17 1349.13 Q2101 1352.75 2095.45 1352.75 Q2089.87 1352.75 2086.7 1349.13 Q2083.55 1345.5 2083.55 1339.13 Q2083.55 1332.75 2086.7 1329.13 Q2089.87 1325.52 2095.45 1325.52 Z" fill="#000000" fill-rule="nonzero" fill-opacity="1"></path><path clip-path="url(#clip060)" d="M2129.43 1330.13 Q2128.71 1329.71 2127.85 1329.53 Q2127.02 1329.32 2126 1329.32 Q2122.39 1329.32 2120.45 1331.68 Q2118.52 1334.02 2118.52 1338.42 L2118.52 1352.07 L2114.24 1352.07 L2114.24 1326.15 L2118.52 1326.15 L2118.52 1330.18 Q2119.87 1327.82 2122.02 1326.68 Q2124.17 1325.52 2127.25 1325.52 Q2127.69 1325.52 2128.22 1325.59 Q2128.76 1325.64 2129.4 1325.76 L2129.43 1330.13 Z" fill="#000000" fill-rule="nonzero" fill-opacity="1"></path><path clip-path="url(#clip060)" d="M2155.03 1338.05 L2155.03 1340.13 L2135.45 1340.13 Q2135.72 1344.53 2138.08 1346.84 Q2140.47 1349.13 2144.7 1349.13 Q2147.16 1349.13 2149.45 1348.53 Q2151.76 1347.93 2154.03 1346.73 L2154.03 1350.75 Q2151.74 1351.73 2149.33 1352.24 Q2146.93 1352.75 2144.45 1352.75 Q2138.25 1352.75 2134.61 1349.13 Q2131 1345.52 2131 1339.37 Q2131 1333 2134.43 1329.27 Q2137.88 1325.52 2143.71 1325.52 Q2148.94 1325.52 2151.97 1328.9 Q2155.03 1332.26 2155.03 1338.05 M2150.77 1336.8 Q2150.72 1333.3 2148.8 1331.22 Q2146.9 1329.13 2143.76 1329.13 Q2140.19 1329.13 2138.04 1331.15 Q2135.91 1333.16 2135.58 1336.82 L2150.77 1336.8 Z" fill="#000000" fill-rule="nonzero" fill-opacity="1"></path><path clip-path="url(#clip060)" d="M2180.68 1327.14 L2180.68 1331.13 Q2178.87 1330.13 2177.04 1329.64 Q2175.24 1329.13 2173.38 1329.13 Q2169.24 1329.13 2166.95 1331.77 Q2164.66 1334.39 2164.66 1339.13 Q2164.66 1343.88 2166.95 1346.52 Q2169.24 1349.13 2173.38 1349.13 Q2175.24 1349.13 2177.04 1348.65 Q2178.87 1348.14 2180.68 1347.14 L2180.68 1351.08 Q2178.89 1351.91 2176.97 1352.33 Q2175.07 1352.75 2172.92 1352.75 Q2167.07 1352.75 2163.62 1349.07 Q2160.17 1345.38 2160.17 1339.13 Q2160.17 1332.79 2163.64 1329.16 Q2167.13 1325.52 2173.2 1325.52 Q2175.17 1325.52 2177.04 1325.94 Q2178.92 1326.33 2180.68 1327.14 Z" fill="#000000" fill-rule="nonzero" fill-opacity="1"></path><path clip-path="url(#clip060)" d="M2199.87 1339.04 Q2194.7 1339.04 2192.71 1340.22 Q2190.72 1341.4 2190.72 1344.25 Q2190.72 1346.52 2192.2 1347.86 Q2193.71 1349.18 2196.28 1349.18 Q2199.82 1349.18 2201.95 1346.68 Q2204.1 1344.16 2204.1 1339.99 L2204.1 1339.04 L2199.87 1339.04 M2208.36 1337.28 L2208.36 1352.07 L2204.1 1352.07 L2204.1 1348.14 Q2202.64 1350.5 2200.47 1351.63 Q2198.29 1352.75 2195.14 1352.75 Q2191.16 1352.75 2188.8 1350.52 Q2186.46 1348.28 2186.46 1344.53 Q2186.46 1340.15 2189.38 1337.93 Q2192.32 1335.71 2198.13 1335.71 L2204.1 1335.71 L2204.1 1335.29 Q2204.1 1332.35 2202.16 1330.76 Q2200.24 1329.13 2196.74 1329.13 Q2194.52 1329.13 2192.41 1329.67 Q2190.31 1330.2 2188.36 1331.26 L2188.36 1327.33 Q2190.7 1326.43 2192.9 1325.99 Q2195.1 1325.52 2197.18 1325.52 Q2202.81 1325.52 2205.58 1328.44 Q2208.36 1331.36 2208.36 1337.28 Z" fill="#000000" fill-rule="nonzero" fill-opacity="1"></path><path clip-path="url(#clip060)" d="M2233.66 1326.91 L2233.66 1330.94 Q2231.86 1330.01 2229.91 1329.55 Q2227.97 1329.09 2225.88 1329.09 Q2222.71 1329.09 2221.12 1330.06 Q2219.54 1331.03 2219.54 1332.98 Q2219.54 1334.46 2220.68 1335.32 Q2221.81 1336.15 2225.24 1336.91 L2226.69 1337.24 Q2231.23 1338.21 2233.13 1339.99 Q2235.05 1341.75 2235.05 1344.92 Q2235.05 1348.53 2232.18 1350.64 Q2229.33 1352.75 2224.33 1352.75 Q2222.25 1352.75 2219.98 1352.33 Q2217.74 1351.94 2215.24 1351.13 L2215.24 1346.73 Q2217.6 1347.95 2219.89 1348.58 Q2222.18 1349.18 2224.43 1349.18 Q2227.44 1349.18 2229.06 1348.16 Q2230.68 1347.12 2230.68 1345.25 Q2230.68 1343.51 2229.5 1342.58 Q2228.34 1341.66 2224.38 1340.8 L2222.9 1340.45 Q2218.94 1339.62 2217.18 1337.91 Q2215.42 1336.17 2215.42 1333.16 Q2215.42 1329.51 2218.01 1327.51 Q2220.61 1325.52 2225.38 1325.52 Q2227.74 1325.52 2229.82 1325.87 Q2231.9 1326.22 2233.66 1326.91 Z" fill="#000000" fill-rule="nonzero" fill-opacity="1"></path><path clip-path="url(#clip060)" d="M2246.05 1318.79 L2246.05 1326.15 L2254.82 1326.15 L2254.82 1329.46 L2246.05 1329.46 L2246.05 1343.53 Q2246.05 1346.7 2246.9 1347.61 Q2247.78 1348.51 2250.44 1348.51 L2254.82 1348.51 L2254.82 1352.07 L2250.44 1352.07 Q2245.51 1352.07 2243.64 1350.25 Q2241.76 1348.39 2241.76 1343.53 L2241.76 1329.46 L2238.64 1329.46 L2238.64 1326.15 L2241.76 1326.15 L2241.76 1318.79 L2246.05 1318.79 Z" fill="#000000" fill-rule="nonzero" fill-opacity="1"></path><polyline clip-path="url(#clip060)" style="stroke:#e26f46; stroke-linecap:round; stroke-linejoin:round; stroke-width:4; stroke-opacity:1; fill:none" points="1638.25,1386.63 1785.15,1386.63 "></polyline>
<path clip-path="url(#clip060)" d="M1823.04 1390.88 Q1817.88 1390.88 1815.89 1392.06 Q1813.9 1393.24 1813.9 1396.09 Q1813.9 1398.36 1815.38 1399.7 Q1816.88 1401.02 1819.45 1401.02 Q1822.99 1401.02 1825.12 1398.52 Q1827.28 1396 1827.28 1391.83 L1827.28 1390.88 L1823.04 1390.88 M1831.53 1389.12 L1831.53 1403.91 L1827.28 1403.91 L1827.28 1399.98 Q1825.82 1402.34 1823.64 1403.47 Q1821.47 1404.59 1818.32 1404.59 Q1814.34 1404.59 1811.97 1402.36 Q1809.64 1400.12 1809.64 1396.37 Q1809.64 1391.99 1812.55 1389.77 Q1815.49 1387.55 1821.3 1387.55 L1827.28 1387.55 L1827.28 1387.13 Q1827.28 1384.19 1825.33 1382.6 Q1823.41 1380.97 1819.91 1380.97 Q1817.69 1380.97 1815.59 1381.51 Q1813.48 1382.04 1811.54 1383.1 L1811.54 1379.17 Q1813.87 1378.27 1816.07 1377.83 Q1818.27 1377.36 1820.35 1377.36 Q1825.98 1377.36 1828.76 1380.28 Q1831.53 1383.2 1831.53 1389.12 Z" fill="#000000" fill-rule="nonzero" fill-opacity="1"></path><path clip-path="url(#clip060)" d="M1858.97 1378.98 L1858.97 1382.97 Q1857.16 1381.97 1855.33 1381.48 Q1853.53 1380.97 1851.67 1380.97 Q1847.53 1380.97 1845.24 1383.61 Q1842.95 1386.23 1842.95 1390.97 Q1842.95 1395.72 1845.24 1398.36 Q1847.53 1400.97 1851.67 1400.97 Q1853.53 1400.97 1855.33 1400.49 Q1857.16 1399.98 1858.97 1398.98 L1858.97 1402.92 Q1857.18 1403.75 1855.26 1404.17 Q1853.36 1404.59 1851.21 1404.59 Q1845.35 1404.59 1841.91 1400.91 Q1838.46 1397.22 1838.46 1390.97 Q1838.46 1384.63 1841.93 1381 Q1845.42 1377.36 1851.49 1377.36 Q1853.46 1377.36 1855.33 1377.78 Q1857.21 1378.17 1858.97 1378.98 Z" fill="#000000" fill-rule="nonzero" fill-opacity="1"></path><path clip-path="url(#clip060)" d="M1870.59 1370.63 L1870.59 1377.99 L1879.36 1377.99 L1879.36 1381.3 L1870.59 1381.3 L1870.59 1395.37 Q1870.59 1398.54 1871.44 1399.45 Q1872.32 1400.35 1874.98 1400.35 L1879.36 1400.35 L1879.36 1403.91 L1874.98 1403.91 Q1870.05 1403.91 1868.18 1402.09 Q1866.3 1400.23 1866.3 1395.37 L1866.3 1381.3 L1863.18 1381.3 L1863.18 1377.99 L1866.3 1377.99 L1866.3 1370.63 L1870.59 1370.63 Z" fill="#000000" fill-rule="nonzero" fill-opacity="1"></path><path clip-path="url(#clip060)" d="M1884.52 1393.68 L1884.52 1377.99 L1888.78 1377.99 L1888.78 1393.52 Q1888.78 1397.2 1890.22 1399.05 Q1891.65 1400.88 1894.52 1400.88 Q1897.97 1400.88 1899.96 1398.68 Q1901.97 1396.48 1901.97 1392.69 L1901.97 1377.99 L1906.23 1377.99 L1906.23 1403.91 L1901.97 1403.91 L1901.97 1399.93 Q1900.42 1402.29 1898.36 1403.45 Q1896.33 1404.59 1893.62 1404.59 Q1889.15 1404.59 1886.84 1401.81 Q1884.52 1399.03 1884.52 1393.68 M1895.24 1377.36 L1895.24 1377.36 Z" fill="#000000" fill-rule="nonzero" fill-opacity="1"></path><path clip-path="url(#clip060)" d="M1926.79 1390.88 Q1921.63 1390.88 1919.64 1392.06 Q1917.65 1393.24 1917.65 1396.09 Q1917.65 1398.36 1919.13 1399.7 Q1920.63 1401.02 1923.2 1401.02 Q1926.74 1401.02 1928.87 1398.52 Q1931.03 1396 1931.03 1391.83 L1931.03 1390.88 L1926.79 1390.88 M1935.28 1389.12 L1935.28 1403.91 L1931.03 1403.91 L1931.03 1399.98 Q1929.57 1402.34 1927.39 1403.47 Q1925.21 1404.59 1922.07 1404.59 Q1918.09 1404.59 1915.72 1402.36 Q1913.39 1400.12 1913.39 1396.37 Q1913.39 1391.99 1916.3 1389.77 Q1919.24 1387.55 1925.05 1387.55 L1931.03 1387.55 L1931.03 1387.13 Q1931.03 1384.19 1929.08 1382.6 Q1927.16 1380.97 1923.66 1380.97 Q1921.44 1380.97 1919.34 1381.51 Q1917.23 1382.04 1915.28 1383.1 L1915.28 1379.17 Q1917.62 1378.27 1919.82 1377.83 Q1922.02 1377.36 1924.1 1377.36 Q1929.73 1377.36 1932.51 1380.28 Q1935.28 1383.2 1935.28 1389.12 Z" fill="#000000" fill-rule="nonzero" fill-opacity="1"></path><path clip-path="url(#clip060)" d="M1944.06 1367.9 L1948.32 1367.9 L1948.32 1403.91 L1944.06 1403.91 L1944.06 1367.9 Z" fill="#000000" fill-rule="nonzero" fill-opacity="1"></path></svg>