<svg class="main-svg" xmlns="http://www.w3.org/2000/svg" xmlns:xlink="http://www.w3.org/1999/xlink" width="842" height="282" style=""><rect x="0" y="0" width="842" height="282" style="fill: rgb(255, 255, 255); fill-opacity: 1;"/><defs id="defs-945249"><g class="clips"><clipPath id="clip945249xyplot" class="plotclip"><rect width="651" height="172"/></clipPath><clipPath class="axesclip" id="clip945249x"><rect x="50" y="0" width="651" height="282"/></clipPath><clipPath class="axesclip" id="clip945249y"><rect x="0" y="60" width="842" height="172"/></clipPath><clipPath class="axesclip" id="clip945249xy"><rect x="50" y="60" width="651" height="172"/></clipPath></g><g class="gradients"/><g class="patterns"/></defs><g class="bglayer"><rect class="bg" x="50" y="60" width="651" height="172" style="fill: rgb(229, 236, 246); fill-opacity: 1; stroke-width: 0;"/></g><g class="layer-below"><g class="imagelayer"/><g class="shapelayer"/></g><g class="cartesianlayer"><g class="subplot xy"><g class="layer-subplot"><g class="shapelayer"/><g class="imagelayer"/></g><g class="gridlayer"><g class="x"><path class="xgrid crisp" transform="translate(132.73000000000002,0)" d="M0,60v172" style="stroke: rgb(255, 255, 255); stroke-opacity: 1; stroke-width: 1px;"/><path class="xgrid crisp" transform="translate(216.3,0)" d="M0,60v172" style="stroke: rgb(255, 255, 255); stroke-opacity: 1; stroke-width: 1px;"/><path class="xgrid crisp" transform="translate(299.87,0)" d="M0,60v172" style="stroke: rgb(255, 255, 255); stroke-opacity: 1; stroke-width: 1px;"/><path class="xgrid crisp" transform="translate(383.44,0)" d="M0,60v172" style="stroke: rgb(255, 255, 255); stroke-opacity: 1; stroke-width: 1px;"/><path class="xgrid crisp" transform="translate(467.01,0)" d="M0,60v172" style="stroke: rgb(255, 255, 255); stroke-opacity: 1; stroke-width: 1px;"/><path class="xgrid crisp" transform="translate(550.5799999999999,0)" d="M0,60v172" style="stroke: rgb(255, 255, 255); stroke-opacity: 1; stroke-width: 1px;"/><path class="xgrid crisp" transform="translate(634.15,0)" d="M0,60v172" style="stroke: rgb(255, 255, 255); stroke-opacity: 1; stroke-width: 1px;"/></g><g class="y"><path class="ygrid crisp" transform="translate(0,200.61)" d="M50,0h651" style="stroke: rgb(255, 255, 255); stroke-opacity: 1; stroke-width: 1px;"/><path class="ygrid crisp" transform="translate(0,84.64)" d="M50,0h651" style="stroke: rgb(255, 255, 255); stroke-opacity: 1; stroke-width: 1px;"/></g></g><g class="zerolinelayer"><path class="yzl zl crisp" transform="translate(0,142.62)" d="M50,0h651" style="stroke: rgb(255, 255, 255); stroke-opacity: 1; stroke-width: 2px;"/></g><path class="xlines-below"/><path class="ylines-below"/><g class="overlines-below"/><g class="xaxislayer-below"/><g class="yaxislayer-below"/><g class="overaxes-below"/><g class="plot" transform="translate(50,60)" clip-path="url(#clip945249xyplot)"><g class="scatterlayer mlayer"><g class="trace scatter trace935406" style="stroke-miterlimit: 2; opacity: 0.5;"><g class="fills"/><g class="errorbars"/><g class="lines"><path class="js-line" d="M0,82.51L651,82.51" style="vector-effect: non-scaling-stroke; fill: none; stroke: rgb(99, 110, 250); stroke-opacity: 1; stroke-width: 2px; opacity: 1;"/></g><g class="points"/><g class="text"/></g><g class="trace scatter tracef65427" style="stroke-miterlimit: 2; opacity: 0.5;"><g class="fills"/><g class="errorbars"/><g class="lines"><path class="js-line" d="M0,101.33L0.84,63.61L1.67,87.3L2.51,77.93L3.34,91.97L4.18,76.96L5.01,93.88L6.69,71.29L7.52,86.36L8.36,78.87L9.19,101.33L10.86,66.46L11.7,92L12.54,62.77L13.37,103.06L14.21,67.49L15.04,83.56L15.88,72.34L16.71,97.44L17.55,93.88L18.39,72.2L19.22,66.66L20.06,75.21L20.89,63.29L21.73,90.77L23.4,85.37L24.23,73.44L25.07,87.18L25.91,35.06L27.58,121.9L28.41,37.34L29.25,97.74L30.08,70.91L30.92,104.03L31.76,99.89L32.59,73.4L33.43,99.1L34.26,163.4L35.1,63.66L35.93,54.15L36.77,119.04L38.44,81.61L39.28,107.81L40.11,87.77L40.95,114.69L41.78,70.92L42.62,95.26L43.46,47.48L44.29,102.26L45.13,84.72L45.96,100.53L46.8,50.53L47.63,96.15L48.47,79.46L49.31,44.81L50.98,77.58L51.81,83.63L52.65,66.56L53.48,82.62L54.32,73.71L55.16,105.23L56.83,54.44L57.66,101.29L59.33,78.61L60.17,88.62L61.01,73.58L61.84,87.61L63.51,68.67L64.35,96.4L65.18,16.87L66.02,54.34L66.85,85.38L67.69,46.64L69.36,103.9L70.2,88.04L71.03,66.29L71.87,70.09L72.7,79.08L73.54,74.68L74.38,85.25L75.21,82.62L76.05,88.77L76.88,110L77.72,69.96L78.55,99.62L79.39,115.31L80.23,47.11L81.9,80.82L82.73,95.19L83.57,59.03L84.4,87.96L86.08,54.4L86.91,67.99L87.75,87.72L88.58,55.3L90.25,105.2L91.09,77.51L91.93,102.15L92.76,80.89L93.6,73.14L94.43,85.19L95.27,81.76L96.1,71.49L96.94,39.36L97.78,106.34L100.28,34.1L101.12,111.83L101.95,89.1L102.79,98.91L103.63,93.36L104.46,55.11L105.3,86.69L106.13,82.62L106.97,85.89L107.8,81.8L108.64,89.99L109.47,118.06L111.15,63.83L111.98,106.15L112.82,72.33L113.65,86.02L115.32,77.52L116.16,72.47L117,81.78L117.83,72.57L118.67,92.59L119.5,89.33L120.34,96.11L121.17,58.75L122.85,110.35L123.68,67.13L124.52,88.57L125.35,76.64L126.19,99.61L127.02,86.07L127.86,81.76L128.7,24.72L129.53,87.56L130.37,85.1L131.2,129.01L132.04,68.82L133.71,102.47L134.55,65.06L135.38,72.24L136.22,99.76L138.72,65.95L139.56,73.11L140.4,106.64L141.23,92.26L142.07,104.7L142.9,95.23L143.74,74.43L144.57,92.56L145.41,76.24L146.25,115.26L147.08,80.76L147.92,95.66L149.59,66.63L150.42,103.96L151.26,70.34L152.09,107.87L152.93,95.05L153.77,23.67L154.6,87.22L155.44,83.55L156.27,83.55L157.11,89.1L157.94,95.64L158.78,73.22L159.62,49.97L160.45,101.68L161.29,60.48L162.12,98.01L162.96,66.11L163.79,83.53L164.63,85.34L165.47,80.81L166.3,78.09L167.14,82.62L167.97,87.13L168.81,79L169.64,71.78L170.48,79.04L171.32,102.25L172.15,90.79L172.99,76.22L173.82,86.26L174.66,89L175.49,77.12L176.33,98.13L177.17,69.67L178,76.22L178.84,66.25L179.67,58.41L180.51,86.14L182.18,100.38L183.02,64.59L183.85,66.64L184.69,108.9L186.36,71.77L187.19,97.86L188.87,83.54L189.7,96.37L190.54,65.92L191.37,102.74L192.21,86.34L193.04,86.36L193.88,107.91L194.72,84.54L195.55,86.46L196.39,82.62L197.22,68.19L198.06,80.72L198.89,93.06L199.73,80.71L200.56,92.18L201.4,81.66L202.24,53.73L203.07,106.12L203.91,93.17L204.74,58.42L206.41,102.55L207.25,81.66L208.09,54.64L208.92,105.23L210.59,82.62L211.43,87.45L212.26,70.99L213.1,96.06L213.94,84.56L214.77,46.63L215.61,87.34L216.44,48.51L217.28,108.39L218.11,75.09L218.95,63.92L219.79,82.62L220.62,62.37L221.46,80.81L222.29,50.11L223.13,82.62L223.96,82.62L224.8,84.38L225.64,80.86L226.47,82.62L228.14,91.46L228.98,72.82L229.81,85.27L230.65,79.97L231.49,87.04L232.32,71.98L233.16,87.01L233.99,83.5L234.83,105.57L235.66,59.21L236.5,91.45L237.34,76.4L239.01,91.48L239.84,81.73L240.68,79.05L241.51,71.06L242.35,99.35L243.18,71.01L244.86,81.74L245.69,83.5L246.53,93.2L247.36,71.95L248.2,8.6L249.03,122.38L249.87,48.31L250.71,85.12L251.54,43.38L252.38,85.85L253.21,61.57L254.05,88.19L256.56,47.95L257.39,97.59L258.23,101.57L259.06,86.47L259.9,98.08L260.73,63.03L261.57,82.62L262.41,82.62L263.24,94.18L264.08,94.3L264.91,66.9L265.75,94.26L266.58,98.29L267.42,74.68L268.26,78.68L269.09,70.83L269.93,63.16L270.76,67.31L271.6,86.4L272.43,78.83L273.27,105.29L274.11,86.47L274.94,86.49L275.78,67.11L276.61,109.41L277.45,78.7L278.28,74.81L279.12,82.62L279.96,82.62L280.79,90.38L281.63,106.05L282.46,62.7L283.3,102.21L284.13,78.64L284.97,50.85L285.8,101.95L287.48,82.62L288.31,70.79L289.15,94.34L289.98,78.68L290.82,94.42L291.65,82.62L292.49,82.62L293.33,86.59L294.16,46.76L295,101.95L295.83,82.62L296.67,90.48L298.34,82.62L299.18,74.68L300.85,90.51L301.68,82.62L302.52,78.65L303.35,70.75L305.03,78.73L305.86,55.47L306.7,90.2L307.53,67.36L308.37,82.62L309.2,82.62L310.04,60.03L310.88,97.39L311.71,93.84L312.55,82.62L314.22,56.52L315.05,104.5L315.89,86.34L316.73,93.81L317.56,67.56L318.4,86.34L319.23,105L320.07,56.01L320.9,93.77L321.74,82.62L322.58,71.36L323.41,93.77L324.25,48.84L325.08,111.8L325.92,71.4L326.75,101.15L327.59,56.27L328.42,67.9L329.26,93.53L330.1,78.95L330.93,78.96L331.77,89.92L332.6,60.6L333.44,89.82L334.27,75.37L335.11,82.62L335.95,93.43L336.78,93.53L337.62,111.98L338.45,90.15L339.29,52.3L340.12,71.54L340.96,78.96L341.8,64.39L343.47,75.51L344.3,110.91L346.81,78.95L347.65,86.28L348.48,78.95L349.32,78.96L350.15,89.92L350.99,89.96L352.66,67.9L353.5,89.89L355.17,82.62L356,104.64L357.67,67.66L358.51,101.09L359.35,71.36L360.18,82.62L361.02,97.49L361.85,82.62L362.69,93.92L363.52,78.82L364.36,40.93L365.2,89.94L366.03,64.21L366.87,64.5L367.7,71.92L368.54,93.23L369.37,157.55L370.21,94.07L371.04,63.36L371.88,139.47L372.72,74.65L373.55,70.75L374.39,55.2L375.22,101.76L376.89,86.54L377.73,86.55L378.57,78.68L379.4,51.17L380.24,82.62L381.07,55.83L381.91,108.81L382.74,78.79L383.58,105.51L384.42,94.3L385.25,47.24L386.09,97.88L386.92,105.82L387.76,82.62L388.59,74.73L389.43,94.38L390.27,43.04L391.1,94.1L391.94,63.29L392.77,78.82L393.61,105.36L394.44,78.76L396.12,102.01L396.95,90.51L397.79,86.59L398.62,86.61L399.46,82.62L400.29,114.61L401.13,49.72L401.97,74.62L402.8,114.39L403.64,74.46L404.47,86.68L405.31,74.48L406.14,110.91L406.98,78.48L407.82,86.75L408.65,57.77L409.49,78.57L410.32,46.26L411.99,94.38L412.83,86.58L414.5,78.65L415.34,78.66L416.17,82.62L417.01,58.96L418.68,78.81L419.51,56.01L421.19,82.62L422.02,78.94L422.86,82.62L423.69,75.28L424.53,86.27L425.36,78.96L427.04,78.99L427.87,97.12L428.71,67.94L429.54,97.12L431.21,64.39L432.05,93.39L432.89,60.88L433.72,79.06L434.56,79.08L435.39,89.69L436.23,71.95L437.06,75.57L437.9,82.62L438.74,68.61L439.57,86.08L440.41,79.15L441.24,82.62L442.08,61.85L442.91,86.02L443.75,48.51L444.59,122.38L445.42,55.17L446.26,96.03L447.09,92.79L447.93,82.62L448.76,96.31L449.6,75.7L450.44,99.83L452.11,75.66L452.94,58.39L453.78,89.4L454.61,75.8L455.45,96.19L456.28,86.05L457.12,113.59L457.96,68.48L458.79,89.61L459.63,72.08L460.46,89.59L461.3,86.13L462.13,82.62L462.97,75.59L463.81,86.11L464.64,51.09L465.48,62.16L466.31,49.11L467.15,108.68L467.98,102.62L468.82,62.28L469.66,75.96L470.49,76L471.33,82.62L472.16,89.21L473,76L473.83,85.92L474.67,72.71L475.51,95.73L476.34,66.06L477.18,92.42L478.01,76.03L478.85,95.73L479.68,76L480.52,108.98L481.36,65.77L482.19,69.33L483.03,95.76L483.86,59.36L484.7,85.88L485.53,66.29L486.37,85.84L487.21,76.16L488.04,89.05L488.88,40.63L489.71,120.03L490.55,95.51L491.38,98.91L492.22,95.84L493.06,112.7L493.89,75.76L494.73,72.39L495.56,65.72L496.4,82.62L498.07,99.43L498.91,68.98L499.74,75.88L500.58,92.68L501.41,69.1L502.25,95.99L503.08,92.76L503.92,72.39L504.75,79.24L505.59,75.88L506.43,92.68L507.26,86L508.1,82.62L508.93,82.62L509.77,109.75L510.6,96.51L512.28,61.66L513.11,120.36L514.78,75.49L515.62,100.35L517.29,57.72L518.13,86.1L518.96,79.13L519.8,86.1L520.63,93.1L521.47,86.15L522.3,43.73L523.14,51.83L524.81,112.61L525.65,79.2L526.48,89.44L527.32,48.31L528.15,79.29L528.99,66.01L529.83,85.9L530.66,72.77L531.5,92.39L532.33,76.05L533.17,72.82L534,92.34L534.84,105.49L535.68,79.29L536.51,79.3L537.35,89.25L538.18,85.95L539.02,75.94L539.85,89.27L540.69,69.25L542.36,102.5L543.2,79.25L544.03,102.79L544.87,92.88L546.54,61.97L547.37,82.62L548.21,99.53L549.05,68.9L549.88,113.14L550.72,82.62L551.55,86.1L552.39,72.14L553.22,79.16L554.06,68.82L554.9,38.28L555.73,99.05L557.4,65.91L558.24,79.33L559.07,92.48L559.91,76L561.58,89.23L562.42,79.3L563.25,76L564.09,79.33L564.92,72.77L565.76,79.36L566.6,72.88L567.43,79.4L568.27,69.77L569.1,73.09L570.77,95.3L571.61,82.62L572.45,98.64L573.28,72.88L574.12,82.62L574.95,82.62L575.79,92.29L576.62,82.62L577.46,95.62L578.3,85.91L579.13,85.92L579.97,92.53L581.64,52.89L582.47,82.62L583.31,66.52L584.15,95.33L585.82,69.81L586.65,82.62L587.49,69.95L588.32,107.7L589.16,63.4L589.99,88.92L590.83,88.96L591.67,79.44L592.5,85.8L593.34,76.25L595.01,92.13L595.84,85.82L596.68,82.62L597.52,89.03L599.19,73.01L600.02,92.15L601.69,79.42L602.53,73.04L603.37,92.13L604.2,85.82L605.87,79.42L606.71,89.01L607.54,79.41L608.38,85.83L609.22,63.35L610.05,88.94L610.89,73.09L611.72,85.77L612.56,85.78L613.39,82.62L614.23,82.62L615.07,88.96L616.74,57.27L617.57,98.13L618.41,95.19L619.24,82.62L620.08,82.62L620.92,73.09L621.75,76.32L622.59,95.16L623.42,66.78L624.26,92L625.09,57.41L625.93,82.62L626.77,82.62L627.6,88.79L628.44,88.82L629.27,82.62L630.94,92.02L631.78,66.82L633.45,95.09L634.29,73.17L635.12,92L635.96,76.32L636.79,88.89L637.63,85.77L638.46,76.3L639.3,82.62L640.14,82.62L640.97,92.05L641.81,79.45L642.64,88.94L643.48,82.62L644.31,85.8L645.15,85.81L645.99,79.43L646.82,95.37L647.66,82.62L648.49,72.96L649.33,73.04L651,88.98" style="vector-effect: non-scaling-stroke; fill: none; stroke: rgb(239, 85, 59); stroke-opacity: 1; stroke-width: 2px; opacity: 1;"/></g><g class="points"/><g class="text"/></g></g></g><g class="overplot"/><path class="xlines-above crisp" d="M0,0" style="fill: none;"/><path class="ylines-above crisp" d="M0,0" style="fill: none;"/><g class="overlines-above"/><g class="xaxislayer-above"><g class="xtick"><text text-anchor="middle" x="0" y="245" transform="translate(132.73000000000002,0)" style="font-family: 'Open Sans', verdana, arial, sans-serif; font-size: 12px; fill: rgb(42, 63, 95); fill-opacity: 1; white-space: pre; opacity: 1;">100</text></g><g class="xtick"><text text-anchor="middle" x="0" y="245" style="font-family: 'Open Sans', verdana, arial, sans-serif; font-size: 12px; fill: rgb(42, 63, 95); fill-opacity: 1; white-space: pre; opacity: 1;" transform="translate(216.3,0)">200</text></g><g class="xtick"><text text-anchor="middle" x="0" y="245" style="font-family: 'Open Sans', verdana, arial, sans-serif; font-size: 12px; fill: rgb(42, 63, 95); fill-opacity: 1; white-space: pre; opacity: 1;" transform="translate(299.87,0)">300</text></g><g class="xtick"><text text-anchor="middle" x="0" y="245" style="font-family: 'Open Sans', verdana, arial, sans-serif; font-size: 12px; fill: rgb(42, 63, 95); fill-opacity: 1; white-space: pre; opacity: 1;" transform="translate(383.44,0)">400</text></g><g class="xtick"><text text-anchor="middle" x="0" y="245" style="font-family: 'Open Sans', verdana, arial, sans-serif; font-size: 12px; fill: rgb(42, 63, 95); fill-opacity: 1; white-space: pre; opacity: 1;" transform="translate(467.01,0)">500</text></g><g class="xtick"><text text-anchor="middle" x="0" y="245" style="font-family: 'Open Sans', verdana, arial, sans-serif; font-size: 12px; fill: rgb(42, 63, 95); fill-opacity: 1; white-space: pre; opacity: 1;" transform="translate(550.5799999999999,0)">600</text></g><g class="xtick"><text text-anchor="middle" x="0" y="245" style="font-family: 'Open Sans', verdana, arial, sans-serif; font-size: 12px; fill: rgb(42, 63, 95); fill-opacity: 1; white-space: pre; opacity: 1;" transform="translate(634.15,0)">700</text></g></g><g class="yaxislayer-above"><g class="ytick"><text text-anchor="end" x="49" y="4.199999999999999" transform="translate(0,200.61)" style="font-family: 'Open Sans', verdana, arial, sans-serif; font-size: 12px; fill: rgb(42, 63, 95); fill-opacity: 1; white-space: pre; opacity: 1;">−0.05</text></g><g class="ytick"><text text-anchor="end" x="49" y="4.199999999999999" style="font-family: 'Open Sans', verdana, arial, sans-serif; font-size: 12px; fill: rgb(42, 63, 95); fill-opacity: 1; white-space: pre; opacity: 1;" transform="translate(0,142.62)">0</text></g><g class="ytick"><text text-anchor="end" x="49" y="4.199999999999999" style="font-family: 'Open Sans', verdana, arial, sans-serif; font-size: 12px; fill: rgb(42, 63, 95); fill-opacity: 1; white-space: pre; opacity: 1;" transform="translate(0,84.64)">0.05</text></g></g><g class="overaxes-above"/></g></g><g class="polarlayer"/><g class="ternarylayer"/><g class="geolayer"/><g class="funnelarealayer"/><g class="pielayer"/><g class="iciclelayer"/><g class="treemaplayer"/><g class="sunburstlayer"/><g class="glimages"/><defs id="topdefs-945249"><g class="clips"/><clipPath id="legend945249"><rect width="116" height="48" x="0" y="0"/></clipPath></defs><g class="layer-above"><g class="imagelayer"/><g class="shapelayer"/></g><g class="infolayer"><g class="legend" pointer-events="all" transform="translate(714.02,60)"><rect class="bg" shape-rendering="crispEdges" width="116" height="48" x="0" y="0" style="stroke: rgb(68, 68, 68); stroke-opacity: 1; fill: rgb(255, 255, 255); fill-opacity: 1; stroke-width: 0px;"/><g class="scrollbox" transform="" clip-path="url(#legend945249)"><g class="groups"><g class="traces" transform="translate(0,14.5)" style="opacity: 1;"><text class="legendtext" text-anchor="start" x="40" y="4.680000000000001" style="font-family: 'Open Sans', verdana, arial, sans-serif; font-size: 12px; fill: rgb(42, 63, 95); fill-opacity: 1; white-space: pre;">y prediction</text><g class="layers" style="opacity: 0.5;"><g class="legendfill"/><g class="legendlines"><path class="js-line" d="M5,0h30" style="fill: none; stroke: rgb(99, 110, 250); stroke-opacity: 1; stroke-width: 2px;"/></g><g class="legendsymbols"><g class="legendpoints"/></g></g><rect class="legendtoggle" x="0" y="-9.5" width="110.95051574707031" height="19" style="fill: rgb(0, 0, 0); fill-opacity: 0;"/></g><g class="traces" transform="translate(0,33.5)" style="opacity: 1;"><text class="legendtext" text-anchor="start" x="40" y="4.680000000000001" style="font-family: 'Open Sans', verdana, arial, sans-serif; font-size: 12px; fill: rgb(42, 63, 95); fill-opacity: 1; white-space: pre;">y actual</text><g class="layers" style="opacity: 0.5;"><g class="legendfill"/><g class="legendlines"><path class="js-line" d="M5,0h30" style="fill: none; stroke: rgb(239, 85, 59); stroke-opacity: 1; stroke-width: 2px;"/></g><g class="legendsymbols"><g class="legendpoints"/></g></g><rect class="legendtoggle" x="0" y="-9.5" width="110.95051574707031" height="19" style="fill: rgb(0, 0, 0); fill-opacity: 0;"/></g></g></g><rect class="scrollbar" rx="20" ry="3" width="0" height="0" x="0" y="0" style="fill: rgb(128, 139, 164); fill-opacity: 1;"/></g><g class="g-gtitle"/><g class="g-xtitle"/><g class="g-ytitle"/></g></svg>