<svg class="main-svg" xmlns="http://www.w3.org/2000/svg" xmlns:xlink="http://www.w3.org/1999/xlink" width="842" height="282" style=""><rect x="0" y="0" width="842" height="282" style="fill: rgb(255, 255, 255); fill-opacity: 1;"/><defs id="defs-ffcdee"><g class="clips"><clipPath id="clipffcdeexyplot" class="plotclip"><rect width="662" height="172"/></clipPath><clipPath class="axesclip" id="clipffcdeex"><rect x="50" y="0" width="662" height="282"/></clipPath><clipPath class="axesclip" id="clipffcdeey"><rect x="0" y="60" width="842" height="172"/></clipPath><clipPath class="axesclip" id="clipffcdeexy"><rect x="50" y="60" width="662" height="172"/></clipPath></g><g class="gradients"/><g class="patterns"/></defs><g class="bglayer"><rect class="bg" x="50" y="60" width="662" height="172" style="fill: rgb(229, 236, 246); fill-opacity: 1; stroke-width: 0;"/></g><g class="layer-below"><g class="imagelayer"/><g class="shapelayer"/></g><g class="cartesianlayer"><g class="subplot xy"><g class="layer-subplot"><g class="shapelayer"/><g class="imagelayer"/></g><g class="gridlayer"><g class="x"><path class="xgrid crisp" transform="translate(134.13,0)" d="M0,60v172" style="stroke: rgb(255, 255, 255); stroke-opacity: 1; stroke-width: 1px;"/><path class="xgrid crisp" transform="translate(219.11,0)" d="M0,60v172" style="stroke: rgb(255, 255, 255); stroke-opacity: 1; stroke-width: 1px;"/><path class="xgrid crisp" transform="translate(304.09000000000003,0)" d="M0,60v172" style="stroke: rgb(255, 255, 255); stroke-opacity: 1; stroke-width: 1px;"/><path class="xgrid crisp" transform="translate(389.07,0)" d="M0,60v172" style="stroke: rgb(255, 255, 255); stroke-opacity: 1; stroke-width: 1px;"/><path class="xgrid crisp" transform="translate(474.05,0)" d="M0,60v172" style="stroke: rgb(255, 255, 255); stroke-opacity: 1; stroke-width: 1px;"/><path class="xgrid crisp" transform="translate(559.03,0)" d="M0,60v172" style="stroke: rgb(255, 255, 255); stroke-opacity: 1; stroke-width: 1px;"/><path class="xgrid crisp" transform="translate(644.02,0)" d="M0,60v172" style="stroke: rgb(255, 255, 255); stroke-opacity: 1; stroke-width: 1px;"/></g><g class="y"><path class="ygrid crisp" transform="translate(0,142.1)" d="M50,0h662" style="stroke: rgb(255, 255, 255); stroke-opacity: 1; stroke-width: 1px;"/><path class="ygrid crisp" transform="translate(0,92.03999999999999)" d="M50,0h662" style="stroke: rgb(255, 255, 255); stroke-opacity: 1; stroke-width: 1px;"/></g></g><g class="zerolinelayer"><path class="yzl zl crisp" transform="translate(0,192.15)" d="M50,0h662" style="stroke: rgb(255, 255, 255); stroke-opacity: 1; stroke-width: 2px;"/></g><path class="xlines-below"/><path class="ylines-below"/><g class="overlines-below"/><g class="xaxislayer-below"/><g class="yaxislayer-below"/><g class="overaxes-below"/><g class="plot" transform="translate(50,60)" clip-path="url(#clipffcdeexyplot)"><g class="scatterlayer mlayer"><g class="trace scatter trace03b712" style="stroke-miterlimit: 2; opacity: 0.7;"><g class="fills"/><g class="errorbars"/><g class="lines"><path class="js-line" d="M0,132.12L149.57,127.86L150.42,127.83L299.13,123.59L299.98,123.56L449.55,119.3L450.4,119.27L599.96,115.01L600.81,114.98L662,113.24" style="vector-effect: non-scaling-stroke; fill: none; stroke: rgb(99, 110, 250); stroke-opacity: 1; stroke-width: 2px; opacity: 1;"/></g><g class="points"/><g class="text"/></g><g class="trace scatter trace03ad36" style="stroke-miterlimit: 2; opacity: 0.7;"><g class="fills"/><g class="errorbars"/><g class="lines"><path class="js-line" d="M0,136.18L0.85,132.08L1.7,133.09L2.55,132.08L3.4,134.1L4.25,132.87L5.1,135.3L5.95,134.49L6.8,132.04L7.65,132.85L8.5,132.04L9.35,136.08L10.2,136.08L11.05,132.59L11.9,134.61L12.75,130.33L13.6,134.74L14.45,131.47L15.3,131.67L16.15,129.46L17,132.65L17.85,135.08L18.7,132.84L21.25,123.62L22.09,125.38L23.79,127.15L24.64,125.17L25.49,126.15L26.34,115.89L27.19,119.87L28.04,128.35L28.89,118.58L29.74,121.84L30.59,119.31L31.44,123.93L32.29,127.66L33.14,125.67L33.99,129.22L34.84,146.66L36.54,136.42L37.39,144.28L38.24,148.98L39.09,148.76L41.64,162.23L42.49,159.7L43.34,162.43L44.19,154.84L45.89,159.54L46.74,163.4L47.59,156.47L48.44,159.39L49.29,158.71L50.14,150.55L51.84,147.05L52.69,147.27L53.54,143.8L54.39,143.8L55.24,141.88L56.09,146.75L56.94,147.84L57.79,141.75L59.49,146.86L60.34,145.99L61.19,147.29L62.04,145.34L62.89,146.41L63.74,145.12L64.59,142.11L65.44,145.08L67.13,124.79L67.98,125.38L69.68,115.3L70.53,119.89L71.38,121.06L72.23,117.54L73.93,114.07L74.78,112.36L77.33,114.25L78.18,120.16L79.03,117.43L79.88,121.09L80.73,128.15L81.58,120.49L83.28,117.95L84.13,120.66L84.98,115.57L85.83,116.72L88.38,104.19L89.23,105.29L90.08,99.4L90.93,99.94L91.78,104.81L92.63,103.7L93.48,107.92L94.33,107.54L95.18,105.5L96.03,106.05L96.88,105.87L97.73,103.46L98.58,94.13L99.43,99.24L100.28,98.52L101.13,95.47L101.98,85L102.83,91.3L103.68,92.7L104.53,96.21L105.38,98.53L106.23,92.59L108.78,94.18L109.63,94L110.47,95.59L111.32,103.24L112.17,104.34L113.02,100.29L113.87,105.37L114.72,103.14L115.57,103.88L116.42,102.96L118.97,99.49L119.82,97.32L122.37,103.82L123.22,98.67L124.07,100.11L124.92,106.1L125.77,102.75L126.62,104.04L127.47,102.75L128.32,106.41L130.02,106.97L130.87,94.48L132.57,96.08L133.42,106.09L134.27,103.11L135.12,106.05L135.97,110.34L136.82,106.55L137.67,104.31L138.52,108.01L140.22,110.08L141.07,106.48L141.92,104.43L142.77,109.61L143.62,111.69L144.47,116.45L145.32,119.17L146.17,117.41L147.02,119.55L147.87,118.17L148.72,125.22L149.57,124.82L150.42,127.63L151.27,127.22L152.12,123.77L152.97,128.38L153.82,125.73L154.66,131.18L155.51,133.86L156.36,121.14L158.06,122.33L158.91,122.53L160.61,126.73L161.46,124.7L162.31,117.66L163.16,121.77L164.01,116.99L164.86,120.31L165.71,116.75L166.56,116.94L167.41,117.53L168.26,117.14L169.96,116.16L170.81,117.13L171.66,116.35L172.51,114.01L173.36,113.24L174.21,117.48L175.06,119.24L175.91,117.86L177.61,120.02L178.46,118.83L179.31,122.18L180.16,119.39L181.01,118L181.86,114.47L182.71,109.25L183.56,110L184.41,111.91L185.26,115.74L186.96,108.4L187.81,114.07L188.66,116.39L189.51,114.05L191.21,119.49L192.06,119.69L192.91,122.65L193.76,119.05L195.46,124.2L196.31,125L197.16,130.46L198.01,130.87L199.7,131.7L200.55,128.59L201.4,128.18L202.25,130.43L203.1,130.02L203.95,132.08L204.8,131.87L205.65,125.64L207.35,132.98L208.2,127.76L209.05,127.96L209.9,132.27L210.75,132.06L211.6,126.02L213.3,132.14L214.15,132.14L215,133.18L215.85,130.67L217.55,133.99L218.4,126.22L219.25,127.24L220.1,119.88L220.95,125.44L221.8,123.82L222.65,119.78L223.5,119.78L224.35,115.41L225.2,115.02L226.05,108L226.9,108L230.3,108L231.15,109.52L232,111.43L232.85,109.31L233.7,109.89L234.55,109.31L235.4,110.27L236.25,107.97L237.95,109.11L238.8,114.06L239.65,109.01L240.5,110.91L241.35,109.57L242.2,109.95L243.04,111.86L243.89,111.67L244.74,110.9L245.59,108.41L246.44,112.02L247.29,109.51L248.99,108.36L249.84,108.55L250.69,110.84L251.54,108.53L252.39,92.56L253.24,101.14L254.09,93.74L254.94,94.28L255.79,85.81L256.64,86.5L257.49,81.96L258.34,83.16L259.19,80.92L260.04,73.91L260.89,66.43L261.74,69.66L263.44,74.58L264.29,77.91L265.14,73.69L265.99,73.69L266.84,73.69L267.69,76.18L268.54,78.7L269.39,75.31L271.09,81.2L271.94,79.49L272.79,78.64L273.64,76.09L275.34,68.59L276.19,69.4L277.04,68.58L277.89,73.48L279.59,75.14L280.44,71.79L281.29,77.58L282.14,76.73L282.99,75.04L283.84,75.04L284.69,75.04L285.54,76.72L286.39,81.77L287.23,77.47L288.08,81.7L288.93,80.84L289.78,73.99L290.63,78.16L292.33,79L293.18,76.45L294.03,78.98L294.88,78.13L295.73,80.67L296.58,80.67L297.43,80.67L298.28,81.53L299.13,73.79L299.98,77.96L300.83,77.96L301.68,79.66L303.38,80.51L304.23,78.8L305.08,78.8L305.93,80.5L306.78,80.5L307.63,79.64L309.33,75.39L310.18,74.55L311.03,68.69L311.88,70.33L312.73,67.03L313.58,67.03L314.43,67.03L315.28,62.16L316.98,67.77L317.83,67.77L319.53,58.87L320.38,63.6L321.23,64.4L322.08,66.81L322.93,63.56L323.78,64.36L324.63,69.19L325.48,63.45L326.33,65.86L327.18,65.86L328.03,63.43L328.88,65.83L329.73,58.54L330.58,64.84L331.42,62.42L332.27,66.41L333.97,57.55L334.82,59.9L336.52,58.32L337.37,59.89L338.22,55.14L339.07,56.7L340.77,55.13L341.62,57.46L342.47,59.82L343.32,66.15L344.17,67.78L345.02,61.24L349.27,50.26L350.12,56.37L350.97,59.49L351.82,59.49L352.67,58.7L353.52,59.49L355.22,57.91L356.07,59.48L356.92,61.07L357.77,60.27L358.62,57.09L359.47,58.66L361.17,59.45L362.02,64.2L362.87,64.2L363.72,60.97L364.57,64.96L365.42,62.53L366.27,62.53L367.12,65.74L367.97,65.74L368.82,68.18L369.67,67.35L370.52,58.36L371.37,59.94L372.22,55.96L373.92,49.74L374.77,52.03L376.46,70.67L377.31,66.52L378.16,78.78L379.01,77.06L379.86,74.5L380.71,68.58L382.41,74.39L383.26,75.24L384.11,76.09L384.96,75.24L385.81,68.45L386.66,68.45L387.51,62.67L388.36,68.32L389.21,67.49L390.06,72.43L390.91,74.95L391.76,67.32L393.46,75.61L394.31,75.61L395.16,73.91L396.01,76.45L396.86,67.91L397.71,70.38L399.41,65.39L400.26,70.3L401.11,69.47L401.96,71.13L403.66,77.02L404.51,77.87L406.21,78.73L407.06,85.64L408.76,76.81L409.61,83.67L410.46,81.91L411.31,82.78L412.16,81.02L413.01,87.13L413.86,86.23L414.71,87.13L417.26,73.04L418.11,73.04L419.8,76.43L420.65,76.43L423.2,74.72L424.05,69.61L427.45,57.3L428.3,57.3L430.85,54.92L431.7,55.71L434.25,53.35L435.1,56.48L435.95,53.31L436.8,56.44L437.65,54.85L438.5,50.92L439.35,53.24L440.2,48.55L441.9,47.02L442.75,48.54L444.45,44.72L445.3,44.72L446.15,41.7L447,42.44L448.7,41.69L449.55,37.21L450.4,37.94L451.25,30.58L452.1,39.16L452.95,33.24L454.65,38.33L455.5,38.33L456.35,41.28L457.2,39.79L458.05,43.5L458.9,42.75L459.75,41.24L460.6,36.01L461.45,37.48L462.3,36.01L463.99,39.67L464.84,46.36L465.69,43.31L466.54,44.81L467.39,42.54L468.24,44.04L469.94,44.8L470.79,43.28L471.64,44.03L472.49,37.23L474.19,25.58L475.04,31.2L475.89,35.52L476.74,31.13L479.29,28.26L480.14,29.68L480.99,28.25L481.84,28.96L482.69,26.82L483.54,29.65L484.39,26.08L485.24,28.19L486.09,26.77L486.94,29.6L487.79,28.17L488.64,33.85L490.34,27.35L491.19,30.18L492.04,25.17L492.89,25.87L493.74,22.34L494.59,23.04L495.44,21.64L496.29,23.03L497.14,13.97L497.99,22.04L500.54,31.19L501.39,37.68L503.09,33.99L503.94,30.34L504.79,30.34L505.64,32.5L506.49,36.13L507.34,33.18L508.18,31.73L509.03,33.9L509.88,30.98L510.73,33.86L511.58,36.05L512.43,33.84L514.13,31.66L514.98,33.83L516.68,34.56L517.53,34.56L519.23,43.41L520.08,41.89L520.93,37.37L521.78,45.52L522.63,47.05L523.48,45.51L524.33,49.33L525.18,46.22L526.03,40.85L526.88,41.6L527.73,40.85L528.58,41.6L530.28,44.62L531.13,36.23L531.98,29.58L532.83,29.58L533.68,36.06L534.53,35.32L535.38,36.79L536.23,29.39L537.08,28.67L537.93,25.08L538.78,25.79L539.63,23.66L540.48,25.77L541.33,24.35L542.18,22.24L543.03,24.34L543.88,29.27L544.73,28.55L545.58,27.83L546.43,29.26L547.28,29.98L548.13,28.54L548.98,29.98L549.83,27.09L550.68,27.8L551.53,32.09L552.37,31.37L553.22,35.72L554.07,37.93L554.92,37.19L555.77,32.73L556.62,32.73L557.47,36.38L558.32,33.42L559.17,40L560.02,40L560.87,40.76L561.72,38.5L562.57,37.75L563.42,34.77L564.27,25.2L565.12,28.74L565.97,29.46L566.82,25.86L567.67,25.15L568.52,27.27L569.37,25.84L570.22,26.55L571.07,27.98L571.92,27.26L577.87,16.72L578.72,14.66L581.27,18.76L582.12,22.22L582.97,20.11L583.82,20.11L584.67,20.11L585.52,22.2L586.37,22.2L587.22,25L588.92,26.42L589.77,28.56L590.62,26.4L591.47,19.99L592.32,19.99L593.17,16.51L594.02,19.25L594.87,18.56L595.72,15.8L596.56,15.8L597.41,13.06L598.26,18.47L599.11,14.32L599.96,15.68L600.81,17.05L601.66,16.36L602.51,17.05L603.36,15.67L604.21,15.67L605.06,17.73L607.61,19.8L608.46,18.41L609.31,16.33L610.16,18.39L611.86,17.7L612.71,15.63L614.41,18.37L615.26,18.37L616.11,17.68L616.96,19.06L617.81,18.37L618.66,19.06L619.51,14.9L620.36,16.26L621.21,14.2L622.06,14.88L623.76,15.57L624.61,15.57L625.46,16.93L626.31,15.56L627.16,10.09L628.01,13.43L628.86,16.15L629.71,16.15L630.56,16.15L631.41,14.09L632.26,12.73L633.11,15.44L633.96,12.02L634.81,14.04L635.66,8.6L636.51,8.6L637.36,8.6L638.21,9.93L641.6,14.64L642.45,11.23L643.3,11.23L644.15,13.93L645,11.89L645.85,13.91L646.7,12.55L647.55,13.9L648.4,14.58L649.25,13.22L650.95,13.22L651.8,15.25L652.65,14.57L653.5,15.93L655.2,16.62L656.05,17.31L656.9,16.62L657.75,19.37L658.6,19.37L659.45,17.28L660.3,15.21L661.15,15.9L662,17.27" style="vector-effect: non-scaling-stroke; fill: none; stroke: rgb(239, 85, 59); stroke-opacity: 1; stroke-width: 2px; opacity: 1;"/></g><g class="points"/><g class="text"/></g></g></g><g class="overplot"/><path class="xlines-above crisp" d="M0,0" style="fill: none;"/><path class="ylines-above crisp" d="M0,0" style="fill: none;"/><g class="overlines-above"/><g class="xaxislayer-above"><g class="xtick"><text text-anchor="middle" x="0" y="245" transform="translate(134.13,0)" style="font-family: 'Open Sans', verdana, arial, sans-serif; font-size: 12px; fill: rgb(42, 63, 95); fill-opacity: 1; white-space: pre; opacity: 1;">100</text></g><g class="xtick"><text text-anchor="middle" x="0" y="245" style="font-family: 'Open Sans', verdana, arial, sans-serif; font-size: 12px; fill: rgb(42, 63, 95); fill-opacity: 1; white-space: pre; opacity: 1;" transform="translate(219.11,0)">200</text></g><g class="xtick"><text text-anchor="middle" x="0" y="245" style="font-family: 'Open Sans', verdana, arial, sans-serif; font-size: 12px; fill: rgb(42, 63, 95); fill-opacity: 1; white-space: pre; opacity: 1;" transform="translate(304.09000000000003,0)">300</text></g><g class="xtick"><text text-anchor="middle" x="0" y="245" style="font-family: 'Open Sans', verdana, arial, sans-serif; font-size: 12px; fill: rgb(42, 63, 95); fill-opacity: 1; white-space: pre; opacity: 1;" transform="translate(389.07,0)">400</text></g><g class="xtick"><text text-anchor="middle" x="0" y="245" style="font-family: 'Open Sans', verdana, arial, sans-serif; font-size: 12px; fill: rgb(42, 63, 95); fill-opacity: 1; white-space: pre; opacity: 1;" transform="translate(474.05,0)">500</text></g><g class="xtick"><text text-anchor="middle" x="0" y="245" style="font-family: 'Open Sans', verdana, arial, sans-serif; font-size: 12px; fill: rgb(42, 63, 95); fill-opacity: 1; white-space: pre; opacity: 1;" transform="translate(559.03,0)">600</text></g><g class="xtick"><text text-anchor="middle" x="0" y="245" style="font-family: 'Open Sans', verdana, arial, sans-serif; font-size: 12px; fill: rgb(42, 63, 95); fill-opacity: 1; white-space: pre; opacity: 1;" transform="translate(644.02,0)">700</text></g></g><g class="yaxislayer-above"><g class="ytick"><text text-anchor="end" x="49" y="4.199999999999999" transform="translate(0,192.15)" style="font-family: 'Open Sans', verdana, arial, sans-serif; font-size: 12px; fill: rgb(42, 63, 95); fill-opacity: 1; white-space: pre; opacity: 1;">0</text></g><g class="ytick"><text text-anchor="end" x="49" y="4.199999999999999" style="font-family: 'Open Sans', verdana, arial, sans-serif; font-size: 12px; fill: rgb(42, 63, 95); fill-opacity: 1; white-space: pre; opacity: 1;" transform="translate(0,142.1)">0.2</text></g><g class="ytick"><text text-anchor="end" x="49" y="4.199999999999999" style="font-family: 'Open Sans', verdana, arial, sans-serif; font-size: 12px; fill: rgb(42, 63, 95); fill-opacity: 1; white-space: pre; opacity: 1;" transform="translate(0,92.03999999999999)">0.4</text></g></g><g class="overaxes-above"/></g></g><g class="polarlayer"/><g class="ternarylayer"/><g class="geolayer"/><g class="funnelarealayer"/><g class="pielayer"/><g class="iciclelayer"/><g class="treemaplayer"/><g class="sunburstlayer"/><g class="glimages"/><defs id="topdefs-ffcdee"><g class="clips"/><clipPath id="legendffcdee"><rect width="105" height="48" x="0" y="0"/></clipPath></defs><g class="layer-above"><g class="imagelayer"/><g class="shapelayer"/></g><g class="infolayer"><g class="legend" pointer-events="all" transform="translate(725.24,60)"><rect class="bg" shape-rendering="crispEdges" width="105" height="48" x="0" y="0" style="stroke: rgb(68, 68, 68); stroke-opacity: 1; fill: rgb(255, 255, 255); fill-opacity: 1; stroke-width: 0px;"/><g class="scrollbox" transform="" clip-path="url(#legendffcdee)"><g class="groups"><g class="traces" transform="translate(0,14.5)" style="opacity: 1;"><text class="legendtext" text-anchor="start" x="40" y="4.680000000000001" style="font-family: 'Open Sans', verdana, arial, sans-serif; font-size: 12px; fill: rgb(42, 63, 95); fill-opacity: 1; white-space: pre;">prediction</text><g class="layers" style="opacity: 0.7;"><g class="legendfill"/><g class="legendlines"><path class="js-line" d="M5,0h30" style="fill: none; stroke: rgb(99, 110, 250); stroke-opacity: 1; stroke-width: 2px;"/></g><g class="legendsymbols"><g class="legendpoints"/></g></g><rect class="legendtoggle" x="0" y="-9.5" width="99.63541412353516" height="19" style="fill: rgb(0, 0, 0); fill-opacity: 0;"/></g><g class="traces" transform="translate(0,33.5)" style="opacity: 1;"><text class="legendtext" text-anchor="start" x="40" y="4.680000000000001" style="font-family: 'Open Sans', verdana, arial, sans-serif; font-size: 12px; fill: rgb(42, 63, 95); fill-opacity: 1; white-space: pre;">actual</text><g class="layers" style="opacity: 0.7;"><g class="legendfill"/><g class="legendlines"><path class="js-line" d="M5,0h30" style="fill: none; stroke: rgb(239, 85, 59); stroke-opacity: 1; stroke-width: 2px;"/></g><g class="legendsymbols"><g class="legendpoints"/></g></g><rect class="legendtoggle" x="0" y="-9.5" width="99.63541412353516" height="19" style="fill: rgb(0, 0, 0); fill-opacity: 0;"/></g></g></g><rect class="scrollbar" rx="20" ry="3" width="0" height="0" x="0" y="0" style="fill: rgb(128, 139, 164); fill-opacity: 1;"/></g><g class="g-gtitle"/><g class="g-xtitle"/><g class="g-ytitle"/></g></svg>