<svg class="main-svg" xmlns="http://www.w3.org/2000/svg" xmlns:xlink="http://www.w3.org/1999/xlink" width="842" height="282" style=""><rect x="0" y="0" width="842" height="282" style="fill: rgb(255, 255, 255); fill-opacity: 1;"/><defs id="defs-d039e1"><g class="clips"><clipPath id="clipd039e1xyplot" class="plotclip"><rect width="662" height="172"/></clipPath><clipPath class="axesclip" id="clipd039e1x"><rect x="50" y="0" width="662" height="282"/></clipPath><clipPath class="axesclip" id="clipd039e1y"><rect x="0" y="60" width="842" height="172"/></clipPath><clipPath class="axesclip" id="clipd039e1xy"><rect x="50" y="60" width="662" height="172"/></clipPath></g><g class="gradients"/><g class="patterns"/></defs><g class="bglayer"><rect class="bg" x="50" y="60" width="662" height="172" style="fill: rgb(229, 236, 246); fill-opacity: 1; stroke-width: 0;"/></g><g class="layer-below"><g class="imagelayer"/><g class="shapelayer"/></g><g class="cartesianlayer"><g class="subplot xy"><g class="layer-subplot"><g class="shapelayer"/><g class="imagelayer"/></g><g class="gridlayer"><g class="x"><path class="xgrid crisp" transform="translate(134.13,0)" d="M0,60v172" style="stroke: rgb(255, 255, 255); stroke-opacity: 1; stroke-width: 1px;"/><path class="xgrid crisp" transform="translate(219.11,0)" d="M0,60v172" style="stroke: rgb(255, 255, 255); stroke-opacity: 1; stroke-width: 1px;"/><path class="xgrid crisp" transform="translate(304.09000000000003,0)" d="M0,60v172" style="stroke: rgb(255, 255, 255); stroke-opacity: 1; stroke-width: 1px;"/><path class="xgrid crisp" transform="translate(389.07,0)" d="M0,60v172" style="stroke: rgb(255, 255, 255); stroke-opacity: 1; stroke-width: 1px;"/><path class="xgrid crisp" transform="translate(474.05,0)" d="M0,60v172" style="stroke: rgb(255, 255, 255); stroke-opacity: 1; stroke-width: 1px;"/><path class="xgrid crisp" transform="translate(559.03,0)" d="M0,60v172" style="stroke: rgb(255, 255, 255); stroke-opacity: 1; stroke-width: 1px;"/><path class="xgrid crisp" transform="translate(644.02,0)" d="M0,60v172" style="stroke: rgb(255, 255, 255); stroke-opacity: 1; stroke-width: 1px;"/></g><g class="y"><path class="ygrid crisp" transform="translate(0,148.31)" d="M50,0h662" style="stroke: rgb(255, 255, 255); stroke-opacity: 1; stroke-width: 1px;"/><path class="ygrid crisp" transform="translate(0,102.09)" d="M50,0h662" style="stroke: rgb(255, 255, 255); stroke-opacity: 1; stroke-width: 1px;"/></g></g><g class="zerolinelayer"><path class="yzl zl crisp" transform="translate(0,194.54)" d="M50,0h662" style="stroke: rgb(255, 255, 255); stroke-opacity: 1; stroke-width: 2px;"/></g><path class="xlines-below"/><path class="ylines-below"/><g class="overlines-below"/><g class="xaxislayer-below"/><g class="yaxislayer-below"/><g class="overaxes-below"/><g class="plot" transform="translate(50,60)" clip-path="url(#clipd039e1xyplot)"><g class="scatterlayer mlayer"><g class="trace scatter traced47702" style="stroke-miterlimit: 2; opacity: 0.7;"><g class="fills"/><g class="errorbars"/><g class="lines"><path class="js-line" d="M0,134.38L436.8,51.4L437.65,51.23L662,8.6" style="vector-effect: non-scaling-stroke; fill: none; stroke: rgb(99, 110, 250); stroke-opacity: 1; stroke-width: 2px; opacity: 1;"/></g><g class="points"/><g class="text"/></g><g class="trace scatter trace598b2b" style="stroke-miterlimit: 2; opacity: 0.7;"><g class="fills"/><g class="errorbars"/><g class="lines"><path class="js-line" d="M0,138.27L0.85,134.48L1.7,135.41L2.55,134.47L3.4,136.34L4.25,135.21L5.1,137.45L5.95,136.7L6.8,134.44L7.65,135.19L8.5,134.44L9.35,138.17L10.2,138.17L11.05,134.94L11.9,136.81L12.75,132.86L13.6,136.93L14.45,133.92L15.3,134.1L16.15,132.05L17,135.01L17.85,137.25L18.7,135.17L21.25,126.66L22.09,128.29L23.79,129.92L24.64,128.09L25.49,129L26.34,119.52L27.19,123.2L28.04,131.03L28.89,122.01L29.74,125.02L30.59,122.68L31.44,126.95L32.29,130.39L33.14,128.55L33.99,131.84L34.84,147.94L36.54,138.48L37.39,145.74L38.24,150.08L39.09,149.88L41.64,162.32L42.49,159.98L43.34,162.5L44.19,155.5L45.89,159.83L46.74,163.4L47.59,157L48.44,159.7L49.29,159.07L50.14,151.53L51.84,148.3L52.69,148.5L53.54,145.3L54.39,145.3L55.24,143.52L56.09,148.03L56.94,149.03L57.79,143.41L59.49,148.13L60.34,147.33L61.19,148.52L62.04,146.72L62.89,147.71L63.74,146.51L64.59,143.73L65.44,146.48L67.13,127.74L67.98,128.29L69.68,118.98L70.53,123.22L71.38,124.3L72.23,121.04L73.93,117.84L74.78,116.26L77.33,118.01L78.18,123.47L79.03,120.94L79.88,124.33L80.73,130.85L81.58,123.77L83.28,121.42L84.13,123.93L84.98,119.23L85.83,120.29L88.38,108.72L89.23,109.74L90.08,104.29L90.93,104.79L91.78,109.29L92.63,108.27L93.48,112.16L94.33,111.82L95.18,109.93L96.03,110.44L96.88,110.27L97.73,108.05L98.58,99.43L99.43,104.15L100.28,103.49L101.13,100.67L101.98,90.99L102.83,96.82L103.68,98.11L104.53,101.35L105.38,103.49L106.23,98.01L108.78,99.47L109.63,99.31L110.47,100.78L111.32,107.84L112.17,108.86L113.02,105.11L113.87,109.8L114.72,107.75L115.57,108.43L116.42,107.58L119.82,102.37L120.67,104.36L122.37,108.38L123.22,103.62L124.07,104.95L124.92,110.48L125.77,107.39L126.62,108.58L127.47,107.39L128.32,110.77L130.02,111.29L130.87,99.75L132.57,101.23L133.42,110.47L134.27,107.72L135.12,110.44L135.97,114.4L136.82,110.9L137.67,108.83L138.52,112.24L140.22,114.16L141.07,110.83L141.92,108.94L142.77,113.72L143.62,115.64L144.47,120.04L145.32,122.56L146.17,120.92L147.02,122.91L147.87,121.63L148.72,128.14L149.57,127.77L150.42,130.37L151.27,129.99L152.12,126.8L152.97,131.06L153.82,128.61L154.66,133.64L155.51,136.12L156.36,124.37L158.06,125.47L158.91,125.65L160.61,129.54L161.46,127.66L162.31,121.16L163.16,124.95L164.01,120.54L164.86,123.61L165.71,120.32L166.56,120.5L167.41,121.04L168.26,120.68L169.96,119.77L170.81,120.67L171.66,119.95L172.51,117.79L173.36,117.08L174.21,120.99L175.06,122.62L175.91,121.34L177.61,123.34L178.46,122.24L179.31,125.33L180.16,122.75L181.01,121.48L181.86,118.21L182.71,113.39L183.56,114.09L184.41,115.84L185.26,119.38L186.96,112.6L187.81,117.84L188.66,119.98L189.51,117.82L191.21,122.85L192.06,123.03L192.91,125.77L193.76,122.44L195.46,127.2L196.31,127.94L197.16,132.98L198.01,133.36L199.7,134.13L200.55,131.25L201.4,130.87L202.25,132.95L203.1,132.57L203.95,134.47L204.8,134.28L205.65,128.52L207.35,135.31L208.2,130.49L209.05,130.67L209.9,134.65L210.75,134.45L211.6,128.88L213.3,134.53L214.15,134.53L215,135.5L215.85,133.18L217.55,136.24L218.4,129.07L219.25,130.01L220.1,123.21L220.95,128.35L221.8,126.85L222.65,123.12L223.5,123.12L224.35,119.08L225.2,118.72L226.05,112.24L226.9,112.24L230.3,112.24L231.15,113.64L232,115.4L232.85,113.45L233.7,113.98L234.55,113.45L235.4,114.33L236.25,112.21L237.95,113.26L238.8,117.83L239.65,113.17L240.5,114.93L241.35,113.69L242.2,114.04L243.04,115.81L243.89,115.63L244.74,114.92L245.59,112.61L246.44,115.95L247.29,113.63L248.99,112.57L249.84,112.75L250.69,114.86L251.54,112.73L252.39,97.98L253.24,105.9L254.09,99.06L254.94,99.56L255.79,91.74L256.64,92.39L257.49,88.19L258.34,89.3L259.19,87.23L260.04,80.76L260.89,73.85L261.74,76.83L263.44,81.37L264.29,84.45L265.14,80.55L265.99,80.55L266.84,80.55L267.69,82.85L268.54,85.18L269.39,82.05L271.09,87.49L271.94,85.9L272.79,85.12L273.64,82.77L275.34,75.84L276.19,76.59L277.04,75.84L277.89,80.35L279.59,81.89L280.44,78.8L281.29,84.14L282.14,83.36L283.84,81.8L284.69,81.8L285.54,83.35L286.39,88.02L287.23,84.05L288.08,87.95L288.93,87.16L289.78,80.82L291.48,85.46L292.33,85.46L293.18,83.1L294.03,85.44L294.88,84.65L295.73,87L297.43,87L298.28,87.79L299.13,80.64L299.98,84.5L300.83,84.5L301.68,86.06L303.38,86.85L304.23,85.27L305.08,85.27L305.93,86.84L306.78,86.84L307.63,86.05L309.33,82.12L310.18,81.35L311.03,75.93L311.88,77.45L312.73,74.4L313.58,74.4L314.43,74.4L315.28,69.9L316.98,75.08L317.83,75.08L319.53,66.87L320.38,71.23L321.23,71.97L322.08,74.2L322.93,71.2L323.78,71.94L324.63,76.4L325.48,71.09L326.33,73.32L327.18,73.32L328.03,71.07L328.88,73.29L329.73,66.56L330.58,72.38L331.42,70.14L332.27,73.83L333.97,65.65L334.82,67.82L336.52,66.36L337.37,67.81L338.22,63.42L339.07,64.86L340.77,63.41L341.62,65.57L342.47,67.74L343.32,73.59L344.17,75.09L345.02,69.05L349.27,58.92L350.12,64.55L350.97,67.44L351.82,67.44L352.67,66.71L353.52,67.44L355.22,65.98L356.07,67.43L356.92,68.89L357.77,68.16L358.62,65.22L359.47,66.67L361.17,67.4L362.02,71.79L362.87,71.79L363.72,68.81L364.57,72.49L365.42,70.24L366.27,70.24L367.12,73.21L367.97,73.21L368.82,75.46L369.67,74.7L370.52,66.39L371.37,67.85L372.22,64.18L373.92,58.44L374.77,60.55L376.46,77.77L377.31,73.93L378.16,85.26L379.01,83.67L379.86,81.3L380.71,75.84L382.41,81.2L383.26,81.98L384.11,82.77L384.96,81.98L385.81,75.71L386.66,75.71L387.51,70.37L388.36,75.59L389.21,74.83L390.06,79.39L390.91,81.72L391.76,74.67L393.46,82.33L394.31,82.33L395.16,80.76L396.01,83.1L396.86,75.21L397.71,77.5L399.41,72.89L400.26,77.42L401.11,76.65L401.96,78.19L403.66,83.62L404.51,84.41L406.21,85.21L407.06,91.58L408.76,83.43L409.61,89.77L410.46,88.14L411.31,88.95L412.16,87.33L413.01,92.96L413.86,92.14L414.71,92.96L417.26,79.95L418.11,79.95L419.8,83.08L420.65,83.08L423.2,81.5L424.05,76.79L427.45,65.42L428.3,65.42L430.85,63.22L431.7,63.95L434.25,61.77L435.1,64.66L435.95,61.73L436.8,64.62L437.65,63.16L438.5,59.52L439.35,61.67L440.2,57.34L441.9,55.92L442.75,57.33L444.45,53.8L445.3,53.8L446.15,51L447,51.69L448.7,51L449.55,46.86L450.4,47.54L451.25,40.74L452.1,48.67L452.95,43.2L454.65,47.9L455.5,47.9L456.35,50.62L457.2,49.24L458.05,52.67L458.9,51.98L459.75,50.59L460.6,45.76L461.45,47.11L462.3,45.75L463.99,49.14L464.84,55.31L465.69,52.49L466.54,53.88L467.39,51.78L468.24,53.17L469.94,53.87L470.79,52.47L471.64,53.16L472.49,46.88L474.19,36.12L475.04,41.32L475.89,45.3L476.74,41.25L479.29,38.6L480.14,39.91L480.99,38.59L481.84,39.25L482.69,37.27L483.54,39.88L484.39,36.58L485.24,38.53L486.09,37.22L486.94,39.83L487.79,38.51L488.64,43.76L490.34,37.76L491.19,40.37L492.04,35.74L492.89,36.39L493.74,33.13L494.59,33.77L495.44,32.49L496.29,33.77L497.14,25.4L497.99,32.85L500.54,41.3L501.39,47.3L503.09,43.89L503.94,40.52L504.79,40.52L505.64,42.51L506.49,45.86L507.34,43.14L508.18,41.8L509.03,43.8L509.88,41.11L510.73,43.77L511.58,45.79L512.43,43.75L514.13,41.74L514.98,43.74L516.68,44.41L517.53,44.41L519.23,52.59L520.08,51.19L520.93,47.01L521.78,54.53L522.63,55.95L523.48,54.52L524.33,58.06L525.18,55.19L526.03,50.22L526.88,50.92L527.73,50.22L528.58,50.92L530.28,53.71L531.13,45.96L531.98,39.82L532.83,39.82L533.68,45.8L534.53,45.12L535.38,46.48L536.23,39.64L537.08,38.97L537.93,35.66L538.78,36.31L539.63,34.35L540.48,36.3L541.33,34.99L542.18,33.04L543.03,34.97L543.88,39.53L544.73,38.87L545.58,38.2L546.43,39.52L547.28,40.19L548.13,38.86L548.98,40.18L549.83,37.52L550.68,38.17L551.53,42.14L552.37,41.46L553.22,45.48L554.07,47.53L554.92,46.84L555.77,42.73L556.62,42.73L557.47,46.1L558.32,43.36L559.17,49.44L560.02,49.44L560.87,50.14L561.72,48.05L562.57,47.36L563.42,44.61L564.27,35.77L565.12,39.04L565.97,39.71L566.82,36.38L567.67,35.72L568.52,37.69L569.37,36.36L570.22,37.02L571.07,38.34L571.92,37.68L577.87,27.94L578.72,26.04L581.27,29.82L582.12,33.02L582.97,31.07L583.82,31.07L584.67,31.07L585.52,33L586.37,33L587.22,35.59L588.92,36.9L589.77,38.88L590.62,36.88L591.47,30.96L592.32,30.96L593.17,27.75L594.02,30.28L594.87,29.64L595.72,27.09L596.56,27.09L597.41,24.56L598.26,29.56L599.11,25.73L599.96,26.98L600.81,28.24L601.66,27.61L602.51,28.24L603.36,26.97L604.21,26.97L605.06,28.87L607.61,30.78L608.46,29.5L609.31,27.58L610.16,29.48L611.86,28.84L612.71,26.93L614.41,29.46L615.26,29.46L616.11,28.83L616.96,30.1L617.81,29.46L618.66,30.1L619.51,26.26L620.36,27.52L621.21,25.62L622.06,26.24L623.76,26.87L624.61,26.87L625.46,28.14L626.31,26.87L627.16,21.81L628.01,24.9L628.86,27.41L629.71,27.41L630.56,27.41L631.41,25.51L632.26,24.25L633.11,26.75L633.96,23.6L634.81,25.46L635.66,20.44L636.51,20.44L637.36,20.44L638.21,21.67L641.6,26.02L642.45,22.87L643.3,22.87L644.15,25.36L645,23.47L645.85,25.34L646.7,24.09L647.55,25.34L648.4,25.96L649.25,24.7L650.95,24.7L651.8,26.58L652.65,25.95L653.5,27.21L655.2,27.85L656.05,28.48L656.9,27.84L657.75,30.38L658.6,30.38L659.45,28.46L660.3,26.55L661.15,27.18L662,28.45" style="vector-effect: non-scaling-stroke; fill: none; stroke: rgb(239, 85, 59); stroke-opacity: 1; stroke-width: 2px; opacity: 1;"/></g><g class="points"/><g class="text"/></g></g></g><g class="overplot"/><path class="xlines-above crisp" d="M0,0" style="fill: none;"/><path class="ylines-above crisp" d="M0,0" style="fill: none;"/><g class="overlines-above"/><g class="xaxislayer-above"><g class="xtick"><text text-anchor="middle" x="0" y="245" transform="translate(134.13,0)" style="font-family: 'Open Sans', verdana, arial, sans-serif; font-size: 12px; fill: rgb(42, 63, 95); fill-opacity: 1; white-space: pre; opacity: 1;">100</text></g><g class="xtick"><text text-anchor="middle" x="0" y="245" style="font-family: 'Open Sans', verdana, arial, sans-serif; font-size: 12px; fill: rgb(42, 63, 95); fill-opacity: 1; white-space: pre; opacity: 1;" transform="translate(219.11,0)">200</text></g><g class="xtick"><text text-anchor="middle" x="0" y="245" style="font-family: 'Open Sans', verdana, arial, sans-serif; font-size: 12px; fill: rgb(42, 63, 95); fill-opacity: 1; white-space: pre; opacity: 1;" transform="translate(304.09000000000003,0)">300</text></g><g class="xtick"><text text-anchor="middle" x="0" y="245" style="font-family: 'Open Sans', verdana, arial, sans-serif; font-size: 12px; fill: rgb(42, 63, 95); fill-opacity: 1; white-space: pre; opacity: 1;" transform="translate(389.07,0)">400</text></g><g class="xtick"><text text-anchor="middle" x="0" y="245" style="font-family: 'Open Sans', verdana, arial, sans-serif; font-size: 12px; fill: rgb(42, 63, 95); fill-opacity: 1; white-space: pre; opacity: 1;" transform="translate(474.05,0)">500</text></g><g class="xtick"><text text-anchor="middle" x="0" y="245" style="font-family: 'Open Sans', verdana, arial, sans-serif; font-size: 12px; fill: rgb(42, 63, 95); fill-opacity: 1; white-space: pre; opacity: 1;" transform="translate(559.03,0)">600</text></g><g class="xtick"><text text-anchor="middle" x="0" y="245" style="font-family: 'Open Sans', verdana, arial, sans-serif; font-size: 12px; fill: rgb(42, 63, 95); fill-opacity: 1; white-space: pre; opacity: 1;" transform="translate(644.02,0)">700</text></g></g><g class="yaxislayer-above"><g class="ytick"><text text-anchor="end" x="49" y="4.199999999999999" transform="translate(0,194.54)" style="font-family: 'Open Sans', verdana, arial, sans-serif; font-size: 12px; fill: rgb(42, 63, 95); fill-opacity: 1; white-space: pre; opacity: 1;">0</text></g><g class="ytick"><text text-anchor="end" x="49" y="4.199999999999999" style="font-family: 'Open Sans', verdana, arial, sans-serif; font-size: 12px; fill: rgb(42, 63, 95); fill-opacity: 1; white-space: pre; opacity: 1;" transform="translate(0,148.31)">0.2</text></g><g class="ytick"><text text-anchor="end" x="49" y="4.199999999999999" style="font-family: 'Open Sans', verdana, arial, sans-serif; font-size: 12px; fill: rgb(42, 63, 95); fill-opacity: 1; white-space: pre; opacity: 1;" transform="translate(0,102.09)">0.4</text></g></g><g class="overaxes-above"/></g></g><g class="polarlayer"/><g class="ternarylayer"/><g class="geolayer"/><g class="funnelarealayer"/><g class="pielayer"/><g class="iciclelayer"/><g class="treemaplayer"/><g class="sunburstlayer"/><g class="glimages"/><defs id="topdefs-d039e1"><g class="clips"/><clipPath id="legendd039e1"><rect width="105" height="48" x="0" y="0"/></clipPath></defs><g class="layer-above"><g class="imagelayer"/><g class="shapelayer"/></g><g class="infolayer"><g class="legend" pointer-events="all" transform="translate(725.24,60)"><rect class="bg" shape-rendering="crispEdges" width="105" height="48" x="0" y="0" style="stroke: rgb(68, 68, 68); stroke-opacity: 1; fill: rgb(255, 255, 255); fill-opacity: 1; stroke-width: 0px;"/><g class="scrollbox" transform="" clip-path="url(#legendd039e1)"><g class="groups"><g class="traces" transform="translate(0,14.5)" style="opacity: 1;"><text class="legendtext" text-anchor="start" x="40" y="4.680000000000001" style="font-family: 'Open Sans', verdana, arial, sans-serif; font-size: 12px; fill: rgb(42, 63, 95); fill-opacity: 1; white-space: pre;">prediction</text><g class="layers" style="opacity: 0.7;"><g class="legendfill"/><g class="legendlines"><path class="js-line" d="M5,0h30" style="fill: none; stroke: rgb(99, 110, 250); stroke-opacity: 1; stroke-width: 2px;"/></g><g class="legendsymbols"><g class="legendpoints"/></g></g><rect class="legendtoggle" x="0" y="-9.5" width="99.63541412353516" height="19" style="fill: rgb(0, 0, 0); fill-opacity: 0;"/></g><g class="traces" transform="translate(0,33.5)" style="opacity: 1;"><text class="legendtext" text-anchor="start" x="40" y="4.680000000000001" style="font-family: 'Open Sans', verdana, arial, sans-serif; font-size: 12px; fill: rgb(42, 63, 95); fill-opacity: 1; white-space: pre;">actual</text><g class="layers" style="opacity: 0.7;"><g class="legendfill"/><g class="legendlines"><path class="js-line" d="M5,0h30" style="fill: none; stroke: rgb(239, 85, 59); stroke-opacity: 1; stroke-width: 2px;"/></g><g class="legendsymbols"><g class="legendpoints"/></g></g><rect class="legendtoggle" x="0" y="-9.5" width="99.63541412353516" height="19" style="fill: rgb(0, 0, 0); fill-opacity: 0;"/></g></g></g><rect class="scrollbar" rx="20" ry="3" width="0" height="0" x="0" y="0" style="fill: rgb(128, 139, 164); fill-opacity: 1;"/></g><g class="g-gtitle"/><g class="g-xtitle"/><g class="g-ytitle"/></g></svg>